<svg width="22" height="21" viewBox="0 0 22 21" fill="none" xmlns="http://www.w3.org/2000/svg">
<g clip-path="url(#clip0_170_4616)">
<path d="M15.3516 18.2435L19.9189 19.2586L18.9038 14.6913C19.5723 13.4408 19.9211 12.0443 19.9189 10.6263C19.9189 5.85873 16.0543 1.99405 11.2866 1.99405C6.51903 1.99405 2.65436 5.85873 2.65436 10.6263C2.65436 15.394 6.51903 19.2586 11.2866 19.2586C12.7046 19.2608 14.1011 18.912 15.3516 18.2435ZM15.1013 16.4195L14.5376 16.7216C13.5375 17.2561 12.4206 17.5345 11.2866 17.5322C9.9208 17.5322 8.58563 17.1272 7.44997 16.3683C6.31431 15.6095 5.42917 14.531 4.90649 13.2691C4.3838 12.0072 4.24704 10.6187 4.51351 9.27908C4.77997 7.93948 5.43769 6.70898 6.40349 5.74318C7.36928 4.77738 8.59978 4.11966 9.93938 3.8532C11.279 3.58674 12.6675 3.7235 13.9294 4.24618C15.1913 4.76887 16.2698 5.65401 17.0286 6.78966C17.7875 7.92532 18.1925 9.26049 18.1925 10.6263C18.1925 11.7779 17.9119 12.8863 17.381 13.8773L17.0798 14.4409L17.6452 16.9849L15.1013 16.4195Z" fill="#5EB9E6"/>
</g>
<defs>
<clipPath id="clip0_170_4616">
<rect width="20.7175" height="20.7175" fill="white" transform="matrix(-1 0 0 1 21.6455 0.267609)"/>
</clipPath>
</defs>
</svg>
