<svg width="16" height="12" viewBox="0 0 16 12" fill="none" xmlns="http://www.w3.org/2000/svg">
<path d="M14.4554 5.25129C14.7934 5.69339 14.7934 6.29022 14.4554 6.73161C13.3908 8.12137 10.8366 10.9829 7.85454 10.9829C4.87251 10.9829 2.31832 8.12137 1.25371 6.73161C1.08927 6.51992 1 6.2595 1 5.99145C1 5.72339 1.08927 5.46297 1.25371 5.25129C2.31832 3.86153 4.87251 1 7.85454 1C10.8366 1 13.3908 3.86153 14.4554 5.25129V5.25129Z" stroke="black" stroke-width="1.42613" stroke-linecap="round" stroke-linejoin="round"/>
<path d="M7.85452 8.13059C9.03597 8.13059 9.99372 7.17284 9.99372 5.9914C9.99372 4.80995 9.03597 3.8522 7.85452 3.8522C6.67308 3.8522 5.71533 4.80995 5.71533 5.9914C5.71533 7.17284 6.67308 8.13059 7.85452 8.13059Z" stroke="black" stroke-width="1.42613" stroke-linecap="round" stroke-linejoin="round"/>
</svg>
