<svg width="25" height="22" viewBox="0 0 25 22" fill="none" xmlns="http://www.w3.org/2000/svg">
<path d="M13.4908 2.7425L12.4987 3.73575L11.5043 2.74129C10.2863 1.52319 8.63436 0.838797 6.91181 0.838684C5.18926 0.838571 3.53722 1.52274 2.31911 2.74069C1.10101 3.95863 0.416617 5.61059 0.416504 7.33313C0.416391 9.05568 1.10056 10.7077 2.31851 11.9258L11.8595 21.4668C12.0294 21.6365 12.2598 21.7319 12.4999 21.7319C12.7401 21.7319 12.9704 21.6365 13.1403 21.4668L22.6886 11.9246C23.8556 10.6947 24.4959 9.05751 24.473 7.3622C24.45 5.66689 23.7657 4.04761 22.5659 2.84968C21.3661 1.65175 19.7457 0.96997 18.0504 0.949721C16.355 0.929472 14.7188 1.57236 13.4908 2.74129V2.7425ZM21.4029 10.6462L12.4999 19.5444L3.60055 10.645C2.73017 9.76531 2.24343 8.57683 2.24672 7.33933C2.25001 6.10182 2.74307 4.91595 3.61812 4.0409C4.49317 3.16585 5.67904 2.6728 6.91654 2.66951C8.15404 2.66621 9.34252 3.15295 10.2222 4.02333L11.8619 5.66304C11.9474 5.74862 12.0491 5.81623 12.1611 5.86187C12.2732 5.90752 12.3932 5.93028 12.5141 5.92881C12.6351 5.92735 12.7545 5.90169 12.8654 5.85335C12.9762 5.805 13.0763 5.73496 13.1597 5.64733L14.7716 4.02333C15.207 3.58746 15.7241 3.24169 16.2932 3.00577C16.8623 2.76986 17.4724 2.64843 18.0885 2.64843C18.7046 2.64843 19.3146 2.76986 19.8837 3.00577C20.4529 3.24169 20.9699 3.58746 21.4053 4.02333C22.2832 4.90196 22.7761 6.09327 22.7756 7.33527C22.7751 8.57727 22.2814 9.76823 21.4029 10.6462Z" fill="#AB0000"/>
</svg>
