<svg width="17" height="17" viewBox="0 0 17 17" fill="none" xmlns="http://www.w3.org/2000/svg">
<path d="M5.3125 1.06244C4.74892 1.06244 4.20841 1.28632 3.8099 1.68484C3.41138 2.08335 3.1875 2.62385 3.1875 3.18744V13.8124C3.1875 14.376 3.41138 14.9165 3.8099 15.315C4.20841 15.7136 4.74892 15.9374 5.3125 15.9374H11.6875C12.2511 15.9374 12.7916 15.7136 13.1901 15.315C13.5886 14.9165 13.8125 14.376 13.8125 13.8124V5.75231C13.8121 5.32977 13.644 4.92466 13.345 4.62606L10.2499 1.52888C10.1019 1.38091 9.92611 1.26355 9.73268 1.18352C9.53925 1.10349 9.33196 1.06234 9.12263 1.06244H5.3125ZM4.25 3.18744C4.25 2.90565 4.36194 2.6354 4.5612 2.43614C4.76046 2.23688 5.03071 2.12494 5.3125 2.12494H8.5V4.78119C8.5 5.20388 8.66791 5.60925 8.9668 5.90814C9.26569 6.20703 9.67106 6.37494 10.0938 6.37494H12.75V13.8124C12.75 14.0942 12.6381 14.3645 12.4388 14.5637C12.2395 14.763 11.9693 14.8749 11.6875 14.8749H5.3125C5.03071 14.8749 4.76046 14.763 4.5612 14.5637C4.36194 14.3645 4.25 14.0942 4.25 13.8124V3.18744ZM12.5301 5.31244H10.0938C9.95285 5.31244 9.81773 5.25647 9.7181 5.15684C9.61847 5.05721 9.5625 4.92209 9.5625 4.78119V2.34488L12.5301 5.31244Z" fill="#E8AE00"/>
</svg>
