<svg width="27" height="24" viewBox="0 0 27 24" fill="none" xmlns="http://www.w3.org/2000/svg">
<path d="M13.3482 0.344971C6.11454 0.344971 0.25193 5.1077 0.25193 10.9857C0.25193 13.4207 1.26996 15.6512 2.95814 17.4468C2.1959 19.4624 0.61003 21.171 0.584452 21.1915C0.246815 21.5496 0.154732 22.0714 0.349129 22.5216C0.543526 22.9718 0.988593 23.2634 1.4797 23.2634C4.62587 23.2634 7.10699 21.9486 8.59566 20.8948C10.0741 21.3603 11.6702 21.6263 13.3482 21.6263C20.5818 21.6263 26.4444 16.8636 26.4444 10.9857C26.4444 5.1077 20.5818 0.344971 13.3482 0.344971ZM13.3482 19.1708C11.9823 19.1708 10.6317 18.9611 9.33744 18.5518L8.17617 18.1835L7.17861 18.8894C6.44706 19.4061 5.44438 19.9842 4.23707 20.373C4.61052 19.754 4.97373 19.0583 5.2551 18.3165L5.79736 16.879L4.74353 15.7637C3.81758 14.7764 2.70747 13.1445 2.70747 10.9857C2.70747 6.4736 7.48043 2.80051 13.3482 2.80051C19.2159 2.80051 23.9888 6.4736 23.9888 10.9857C23.9888 15.4977 19.2159 19.1708 13.3482 19.1708Z" fill="#3BAAE1"/>
</svg>
