<svg width="12" height="11" viewBox="0 0 12 11" fill="none" xmlns="http://www.w3.org/2000/svg">
<path fill-rule="evenodd" clip-rule="evenodd" d="M8.75 1.875C8.75 1.37772 8.55246 0.900806 8.20083 0.549175C7.84919 0.197544 7.37228 0 6.875 0H4.375C3.87772 0 3.40081 0.197544 3.04917 0.549175C2.69754 0.900806 2.5 1.37772 2.5 1.875H1.875C1.37772 1.875 0.900806 2.07254 0.549175 2.42417C0.197544 2.77581 0 3.25272 0 3.75V8.75C0 9.24728 0.197544 9.72419 0.549175 10.0758C0.900806 10.4275 1.37772 10.625 1.875 10.625H9.375C9.87228 10.625 10.3492 10.4275 10.7008 10.0758C11.0525 9.72419 11.25 9.24728 11.25 8.75V3.75C11.25 3.25272 11.0525 2.77581 10.7008 2.42417C10.3492 2.07254 9.87228 1.875 9.375 1.875H8.75ZM6.875 1.25H4.375C4.20924 1.25 4.05027 1.31585 3.93306 1.43306C3.81585 1.55027 3.75 1.70924 3.75 1.875H7.5C7.5 1.70924 7.43415 1.55027 7.31694 1.43306C7.19973 1.31585 7.04076 1.25 6.875 1.25ZM1.875 3.125H9.375C9.54076 3.125 9.69973 3.19085 9.81694 3.30806C9.93415 3.42527 10 3.58424 10 3.75V8.75C10 8.91576 9.93415 9.07473 9.81694 9.19194C9.69973 9.30915 9.54076 9.375 9.375 9.375H1.875C1.70924 9.375 1.55027 9.30915 1.43306 9.19194C1.31585 9.07473 1.25 8.91576 1.25 8.75V3.75C1.25 3.58424 1.31585 3.42527 1.43306 3.30806C1.55027 3.19085 1.70924 3.125 1.875 3.125Z" fill="#F3B909"/>
</svg>
