<svg xmlns="http://www.w3.org/2000/svg" width="27.995" height="20.741" viewBox="0 0 27.995 20.741">
  <g id="Group_14" data-name="Group 14" transform="translate(0.5 0.608)">
    <path id="Path_23" data-name="Path 23" d="M228.018,93.5a2.76,2.76,0,0,1-3.873,0,2.688,2.688,0,0,1,0-3.83,2.76,2.76,0,0,1,3.873,0A2.688,2.688,0,0,1,228.018,93.5Z" transform="translate(-212.58 -81.767)" fill="#fff" stroke="#e73c3c" stroke-width="1"/>
    <path id="Path_24" data-name="Path 24" d="M309.106,61.248a1.3,1.3,0,0,1-.921-.379,1.281,1.281,0,0,1,0-1.824,5.354,5.354,0,0,0,0-7.633,1.282,1.282,0,0,1,0-1.824,1.31,1.31,0,0,1,1.841,0,7.918,7.918,0,0,1,0,11.284A1.3,1.3,0,0,1,309.106,61.248Z" transform="translate(-289.928 -45.413)" fill="#fff" stroke="#e73c3c" stroke-width="1" opacity="0.8"/>
    <path id="Path_25" data-name="Path 25" d="M344.059,23.347a1.3,1.3,0,0,1-.921-.379,1.282,1.282,0,0,1,0-1.824,10.683,10.683,0,0,0,0-15.227,1.282,1.282,0,0,1,0-1.824,1.31,1.31,0,0,1,1.841,0,13.247,13.247,0,0,1,0,18.879A1.3,1.3,0,0,1,344.059,23.347Z" transform="translate(-321.937 -3.714)" fill="#fff" stroke="#e73c3c" stroke-width="1" opacity="0.6"/>
    <path id="Path_26" data-name="Path 26" d="M152.685,61.247a1.3,1.3,0,0,1-.92-.377,7.918,7.918,0,0,1,0-11.284,1.309,1.309,0,0,1,1.841,0,1.282,1.282,0,0,1,0,1.824,5.355,5.355,0,0,0,0,7.633,1.281,1.281,0,0,1,0,1.824A1.3,1.3,0,0,1,152.685,61.247Z" transform="translate(-144.868 -45.411)" fill="#fff" stroke="#e73c3c" stroke-width="1" opacity="0.8"/>
    <path id="Path_27" data-name="Path 27" d="M100.44,23.345a1.3,1.3,0,0,1-.92-.377,13.246,13.246,0,0,1,0-18.879,1.31,1.31,0,0,1,1.84,0,1.281,1.281,0,0,1,0,1.824,10.683,10.683,0,0,0,0,15.228,1.282,1.282,0,0,1,0,1.824A1.3,1.3,0,0,1,100.44,23.345Z" transform="translate(-95.567 -3.712)" fill="#fff" stroke="#e73c3c" stroke-width="1" opacity="0.6"/>
  </g>
</svg>
