<svg xmlns="http://www.w3.org/2000/svg" width="13.333" height="20" viewBox="0 0 13.333 20">
  <g id="microphone-black-shape" transform="translate(-73.087)">
    <g id="Group_13" data-name="Group 13" transform="translate(73.087)">
      <path id="Path_21" data-name="Path 21" d="M149.883,13.846a3.5,3.5,0,0,0,2.616-1.129A3.776,3.776,0,0,0,153.586,10V3.846A3.776,3.776,0,0,0,152.5,1.13a3.592,3.592,0,0,0-5.231,0,3.776,3.776,0,0,0-1.088,2.716V10a3.776,3.776,0,0,0,1.088,2.716A3.5,3.5,0,0,0,149.883,13.846Z" transform="translate(-143.216 0)" fill="#404040"/>
      <path id="Path_22" data-name="Path 22" d="M86.2,182.952a.708.708,0,0,0-1.042,0,.754.754,0,0,0-.22.541v1.539a5.287,5.287,0,0,1-1.522,3.8,5.035,5.035,0,0,1-7.326,0,5.287,5.287,0,0,1-1.522-3.8v-1.539a.753.753,0,0,0-.22-.541.708.708,0,0,0-1.042,0,.753.753,0,0,0-.22.541v1.539a6.823,6.823,0,0,0,1.707,4.621,6.387,6.387,0,0,0,4.219,2.253v1.587H76.05a.7.7,0,0,0-.521.229.775.775,0,0,0,0,1.082.7.7,0,0,0,.521.229h7.407a.7.7,0,0,0,.521-.229.774.774,0,0,0,0-1.082.7.7,0,0,0-.521-.229H80.494v-1.587a6.388,6.388,0,0,0,4.218-2.253,6.822,6.822,0,0,0,1.707-4.621v-1.539A.753.753,0,0,0,86.2,182.952Z" transform="translate(-73.087 -175.032)" fill="#404040"/>
    </g>
  </g>
</svg>
