<svg xmlns="http://www.w3.org/2000/svg" xmlns:xlink="http://www.w3.org/1999/xlink" viewBox="0 0 1530.38 311.61"><defs><style>.cls-1{fill:#3cb4e7;}.cls-2{fill:url(#linear-gradient);}.cls-3{fill:url(#linear-gradient-2);}.cls-4{fill:url(#linear-gradient-3);}</style><linearGradient id="linear-gradient" x1="8.92" y1="274.15" x2="159.77" y2="-19.26" gradientUnits="userSpaceOnUse"><stop offset="0" stop-color="#38a4dc"/><stop offset="0.12" stop-color="#3ba6dd"/><stop offset="0.58" stop-color="#3bb2e6"/><stop offset="1" stop-color="#5bbfed"/></linearGradient><linearGradient id="linear-gradient-2" x1="61.77" y1="298.83" x2="208.15" y2="14.11" xlink:href="#linear-gradient"/><linearGradient id="linear-gradient-3" x1="-41.24" y1="238.69" x2="102.21" y2="-40.33" xlink:href="#linear-gradient"/></defs><g id="Layer_2" data-name="Layer 2"><g id="Layer_1-2" data-name="Layer 1"><path class="cls-1" d="M345.72,123.51H475.3c2.95-39.47-3.95-66.7-20.77-89.09S411.06.64,374.49.37Q326.75,0,296.28,29.73T265.4,108q-.39,48.13,29.41,78.2t79.1,30.51q56,.48,89.79-35.88l-27.61-29.25Q412.86,175.34,378.6,175q-23.4-.17-39.48-13.23c-9.74-8-16.49-18.71-20-32.15-.05,0-.05-.15-.11-.26-.31-1.11-.58-2.21-.84-3.37-4.43-20.55-.9-34.63-.9-34.63Q321,67.52,336.44,54t38.1-13.44c16.18.16,29.94,4.54,39.69,13.87S428,72,428.61,87H366.8a21.07,21.07,0,0,0-21.08,21.08Z"/><path class="cls-1" d="M557.61,42.42V22.55a21.33,21.33,0,0,0-20.92-21.5H506.07V216.11H535c11.65.09,21.83-9.27,21.93-20.91V111.61C557,92,563.73,76.46,577,65.08q13.93-12,34.33-14.52a21.1,21.1,0,0,0,18.65-20.72L630.18.05C596.5.32,572.42,14.44,557.61,42.42Z"/><path class="cls-1" d="M803.89,118.1A68.3,68.3,0,0,0,775.8,97.18,298.21,298.21,0,0,0,742.7,86c-11-3-20.34-6.64-28-11s-11.43-9.65-11.38-16q.15-18.66,28.77-18.45,21.51.16,44.27,10.44a21.17,21.17,0,0,0,27.72-9.49l9.33-18.18Q780.15.38,735.64,0,701-.31,678,16T654.75,63.35q-.16,21.1,11.07,34.89a63.74,63.74,0,0,0,27.45,19.92q16.29,6.16,32.57,10.8a122.79,122.79,0,0,1,27.56,11.38c7.48,4.43,11.23,10.23,11.17,17.39q-.15,19.92-31.56,19.66-18-.16-37.74-7.27a116.23,116.23,0,0,1-16-7.12c-10.44-5.58-23.4-1.95-28.72,8.59l-7.59,15q34,30.12,87.69,30.56,36.19.31,60.18-16.23t24.24-47.53Q815.28,132.33,803.89,118.1Z"/><path class="cls-1" d="M1037.48,30.89Q1006.73.84,957,.37q-50.5-.39-81.79,29.2t-31.67,77.68q-.39,48.52,30.41,78.83t81.26,30.67q49.72.48,81-29.35t31.67-78.31Q1068.28,61,1037.48,30.89Zm-38.78,125q-16.85,17.7-43.11,17.55-27-.24-43.63-18.29t-16.29-46.64c.16-19.13,5.85-34.57,17.08-46.43s25.87-17.7,43.89-17.54q26.25.23,42.79,18.28t16.34,46.64C1015.61,128.59,1009.92,144,998.7,155.89Z"/><path class="cls-1" d="M1285.35,23.39Q1264.41,1.1,1227.86.83c-36.36.27-61.76,14-76.57,41.16V22.29a21.08,21.08,0,0,0-20.92-21.24H1098V216.11h30.62c11.64.1,21.87-9,22-20.66V110.39c.11-17.76,5.22-32.3,15.23-43.63s23.72-17,41-17.18c14.54.16,26.08,4.53,34.46,13.23s12.6,20.44,12.44,35.3v118h30.09c11.65.1,22.08-9.28,22.19-20.92V83.41Q1306.2,45.63,1285.35,23.39Z"/><path class="cls-1" d="M1507.56,20.51Q1484.87.43,1443.48.11c-18.29-.16-34.31,1.79-48,5.8s-28.93,10.54-45.74,19.71l8.8,17.18A21.14,21.14,0,0,0,1386,52.34Q1409.6,42,1431.62,42.17q23.48.22,35.68,10.64c8.16,7,12.22,16.71,12.12,29.14l-.06,5.06h-62q-38.65.09-59.82,16.81c-14.17,11.18-21.29,26.67-21.44,46.59-.16,19.34,6.42,35.26,19.86,47.69s31.41,18.76,54,18.92q46.47.39,69-27.67l0,4.8a21.11,21.11,0,0,0,20.92,21.24h30.57v-139Q1530.29,40.61,1507.56,20.51ZM1479,142a8.23,8.23,0,0,1-.1,1.21q-2.36,15.09-18,25.27-16,10.44-38.26,10.22c-11.7-.1-20.86-2.79-27.56-8.16S1384.93,158,1385,149c.11-9.27,3.37-16,9.91-20s16.7-5.59,30.51-5.48h53.7Z"/><path class="cls-2" d="M0,121.21H95.2a0,0,0,0,1,0,0V265.42A46.19,46.19,0,0,1,49,311.61H0a0,0,0,0,1,0,0V121.21A0,0,0,0,1,0,121.21Z"/><path class="cls-3" d="M120.73,1.1h49a46.19,46.19,0,0,1,46.19,46.19V170.84A46.19,46.19,0,0,1,169.73,217h-49a0,0,0,0,1,0,0V1.1A0,0,0,0,1,120.73,1.1Z"/><path class="cls-4" d="M46.19,1.1h49a0,0,0,0,1,0,0V95.68a0,0,0,0,1,0,0H0a0,0,0,0,1,0,0V47.29A46.19,46.19,0,0,1,46.19,1.1Z"/></g></g></svg>