<svg xmlns="http://www.w3.org/2000/svg" width="20" height="20" viewBox="0 0 20 20">
  <path id="Union_1" data-name="Union 1" d="M1.621,20A1.6,1.6,0,0,1,0,18.429V.744A.756.756,0,0,1,.768,0H14.745a.756.756,0,0,1,.768.744V18.429a2.7,2.7,0,0,0,.5,1.571Zm.339-2.5a.613.613,0,0,0,.623.6H12.93a.6.6,0,1,0,0-1.206H2.583A.613.613,0,0,0,1.96,17.5Zm0-2.573a.613.613,0,0,0,.623.6H12.93a.6.6,0,1,0,0-1.206H2.583A.613.613,0,0,0,1.96,14.924Zm0-2.572a.614.614,0,0,0,.623.6H12.93a.6.6,0,1,0,0-1.207H2.583A.613.613,0,0,0,1.96,12.352Zm0-2.573a.613.613,0,0,0,.623.6H12.93a.6.6,0,1,0,0-1.207H2.583A.614.614,0,0,0,1.96,9.778Zm0-7.276v4.7a.613.613,0,0,0,.623.6H12.93a.613.613,0,0,0,.622-.6V2.5a.613.613,0,0,0-.622-.6H2.583A.613.613,0,0,0,1.96,2.5Zm14.8,15.926V5.457h2.475A.756.756,0,0,1,20,6.2V18.4A1.614,1.614,0,0,1,18.418,20h-.039A1.6,1.6,0,0,1,16.758,18.429ZM3.205,6.6v-3.5h9.1V6.6Z" fill="#404040"/>
</svg>
