<svg width="16" height="19" viewBox="0 0 16 19" fill="none" xmlns="http://www.w3.org/2000/svg">
<mask id="mask0_166_1675" style="mask-type:luminance" maskUnits="userSpaceOnUse" x="0" y="12" width="16" height="7">
<path fill-rule="evenodd" clip-rule="evenodd" d="M0.523438 12.145H15.0433V18.9045H0.523438V12.145Z" fill="white"/>
</mask>
<g mask="url(#mask0_166_1675)">
<path fill-rule="evenodd" clip-rule="evenodd" d="M7.78439 13.52C3.87847 13.52 1.89847 14.191 1.89847 15.5155C1.89847 16.852 3.87847 17.5295 7.78439 17.5295C11.6894 17.5295 13.6685 16.8585 13.6685 15.5339C13.6685 14.1974 11.6894 13.52 7.78439 13.52M7.78435 18.9045C5.9886 18.9045 0.523438 18.9045 0.523438 15.5156C0.523438 12.4943 4.66769 12.145 7.78435 12.145C9.5801 12.145 15.0434 12.145 15.0434 15.5339C15.0434 18.5553 10.9001 18.9045 7.78435 18.9045" fill="#7B6F72"/>
</g>
<mask id="mask1_166_1675" style="mask-type:luminance" maskUnits="userSpaceOnUse" x="2" y="0" width="11" height="11">
<path fill-rule="evenodd" clip-rule="evenodd" d="M2.91602 0.69043H12.651V10.4241H2.91602V0.69043Z" fill="white"/>
</mask>
<g mask="url(#mask1_166_1675)">
<path fill-rule="evenodd" clip-rule="evenodd" d="M7.78456 1.9992C5.82198 1.9992 4.22515 3.59512 4.22515 5.5577C4.21873 7.51387 5.80365 9.10887 7.75798 9.1162L7.78456 9.7707V9.1162C9.74623 9.1162 11.3421 7.51937 11.3421 5.5577C11.3421 3.59512 9.74623 1.9992 7.78456 1.9992M7.78446 10.4243H7.75513C5.07663 10.416 2.90688 8.2316 2.91604 5.55494C2.91604 2.87369 5.09954 0.690186 7.78446 0.690186C10.4685 0.690186 12.651 2.87369 12.651 5.55769C12.651 8.24169 10.4685 10.4243 7.78446 10.4243" fill="#7B6F72"/>
</g>
</svg>
