<svg width="103" height="103" viewBox="0 0 103 103" fill="none" xmlns="http://www.w3.org/2000/svg">
<path d="M47.4374 35.3489C47.1776 35.7404 47.2845 36.2685 47.6761 36.5282L54.0573 40.7613C54.4489 41.0211 54.9769 40.9142 55.2366 40.5227C55.4964 40.1311 55.3895 39.6031 54.998 39.3433L49.3258 35.5805L53.0886 29.9084C53.3483 29.5168 53.2415 28.9888 52.8499 28.729C52.4583 28.4692 51.9303 28.5761 51.6705 28.9677L47.4374 35.3489ZM58.284 37.0592L58.6488 36.2905L58.284 37.0592ZM65.6553 44.1283L64.9025 44.525L65.6553 44.1283ZM67.3181 54.2052L66.4778 54.0715L66.4778 54.0715L67.3181 54.2052ZM62.6088 63.2678L62.0164 62.6571L62.6088 63.2678ZM53.407 67.699L53.5151 68.543L53.407 67.699ZM43.3854 65.7302L43.8048 64.9899L43.3854 65.7302ZM36.5439 58.1471L35.7645 58.4883L36.5439 58.1471ZM36.4416 48.1705C36.5488 47.713 36.2648 47.2552 35.8073 47.1481C35.3498 47.0409 34.892 47.3249 34.7848 47.7824L36.4416 48.1705ZM48.3152 36.6531C51.5594 35.9966 54.9289 36.4087 57.9192 37.8278L58.6488 36.2905C55.3263 34.7137 51.5823 34.2558 47.9777 34.9853L48.3152 36.6531ZM57.9192 37.8278C60.9095 39.2469 63.3596 41.5966 64.9025 44.525L66.408 43.7317C64.6937 40.478 61.9714 37.8673 58.6488 36.2905L57.9192 37.8278ZM64.9025 44.525C66.4454 47.4533 66.9981 50.8027 66.4778 54.0715L68.1584 54.339C68.7365 50.707 68.1224 46.9854 66.408 43.7317L64.9025 44.525ZM66.4778 54.0715C65.9575 57.3403 64.3922 60.3525 62.0164 62.6571L63.2012 63.8786C65.841 61.3179 67.5802 57.971 68.1584 54.339L66.4778 54.0715ZM62.0164 62.6571C59.6405 64.9617 56.582 66.4345 53.2989 66.8551L53.5151 68.543C57.163 68.0757 60.5614 66.4392 63.2012 63.8786L62.0164 62.6571ZM53.2989 66.8551C50.0158 67.2756 46.6848 66.6212 43.8048 64.9899L42.9661 66.4705C46.1661 68.2831 49.8672 69.0102 53.5151 68.543L53.2989 66.8551ZM43.8048 64.9899C40.9248 63.3585 38.6508 60.838 37.3234 57.8059L35.7645 58.4883C37.2394 61.8574 39.7661 64.6579 42.9661 66.4705L43.8048 64.9899ZM37.3234 57.8059C35.996 54.7738 35.6866 51.3932 36.4416 48.1705L34.7848 47.7824C33.9459 51.3631 34.2896 55.1193 35.7645 58.4883L37.3234 57.8059Z" fill="white"/>
<path d="M48.8277 56.6387H47.6294V49.0032C47.3409 49.2784 46.9615 49.5535 46.4911 49.8287C46.0251 50.1038 45.6057 50.3102 45.2329 50.4478V49.2895C45.9031 48.9744 46.4889 48.5927 46.9903 48.1445C47.4918 47.6962 47.8469 47.2613 48.0555 46.8397H48.8277V56.6387ZM51.9031 51.8257C51.9031 50.6719 52.0207 49.7443 52.256 49.0431C52.4956 48.3375 52.8484 47.7939 53.3144 47.4122C53.7848 47.0305 54.3751 46.8397 55.0851 46.8397C55.6088 46.8397 56.0681 46.9462 56.4631 47.1592C56.8581 47.3678 57.1843 47.6718 57.4417 48.0712C57.6991 48.4662 57.901 48.95 58.0475 49.5224C58.1939 50.0905 58.2671 50.8583 58.2671 51.8257C58.2671 52.9707 58.1495 53.896 57.9143 54.6017C57.6791 55.3029 57.3263 55.8465 56.8559 56.2326C56.3899 56.6143 55.7996 56.8051 55.0851 56.8051C54.1443 56.8051 53.4054 56.4678 52.8684 55.7932C52.2249 54.9811 51.9031 53.6586 51.9031 51.8257ZM53.1347 51.8257C53.1347 53.4278 53.3211 54.4952 53.6938 55.0277C54.0711 55.5558 54.5348 55.8199 55.0851 55.8199C55.6354 55.8199 56.097 55.5536 56.4698 55.021C56.847 54.4885 57.0356 53.4234 57.0356 51.8257C57.0356 50.2192 56.847 49.1519 56.4698 48.6238C56.097 48.0957 55.631 47.8316 55.0718 47.8316C54.5215 47.8316 54.0822 48.0646 53.7538 48.5306C53.341 49.1253 53.1347 50.2236 53.1347 51.8257Z" fill="white"/>
</svg>
