<svg width="21" height="21" viewBox="0 0 21 21" fill="none" xmlns="http://www.w3.org/2000/svg">
<g clip-path="url(#clip0_170_4611)">
<path d="M14.675 2.85747H18.1279C18.3569 2.85747 18.5764 2.94842 18.7383 3.1103C18.9002 3.27219 18.9911 3.49176 18.9911 3.7207V17.5324C18.9911 17.7613 18.9002 17.9809 18.7383 18.1428C18.5764 18.3046 18.3569 18.3956 18.1279 18.3956H2.58979C2.36085 18.3956 2.14128 18.3046 1.9794 18.1428C1.81751 17.9809 1.72656 17.7613 1.72656 17.5324V3.7207C1.72656 3.49176 1.81751 3.27219 1.9794 3.1103C2.14128 2.94842 2.36085 2.85747 2.58979 2.85747H6.04271V1.13101H7.76917V2.85747H12.9485V1.13101H14.675V2.85747ZM17.2647 9.7633H3.45302V16.6691H17.2647V9.7633ZM12.9485 4.58393H7.76917V6.31039H6.04271V4.58393H3.45302V8.03684H17.2647V4.58393H14.675V6.31039H12.9485V4.58393ZM5.17948 11.4898H6.90594V13.2162H5.17948V11.4898ZM9.49562 11.4898H11.2221V13.2162H9.49562V11.4898ZM13.8118 11.4898H15.5382V13.2162H13.8118V11.4898Z" fill="#5EB9E6"/>
</g>
<defs>
<clipPath id="clip0_170_4611">
<rect width="20.7175" height="20.7175" fill="white" transform="translate(0 0.267639)"/>
</clipPath>
</defs>
</svg>
