<svg width="694" height="53" viewBox="0 0 694 53" fill="none" xmlns="http://www.w3.org/2000/svg">
<g filter="url(#filter0_b_130_1312)">
<rect x="0.68457" y="0.722656" width="679.319" height="51.7576" rx="13.8247" fill="#2D2D2D" fill-opacity="0.65"/>
<g clip-path="url(#clip0_130_1312)">
<path d="M56.3232 26.6016C56.3232 29.347 55.2326 31.98 53.2913 33.9213C51.35 35.8626 48.717 36.9532 45.9716 36.9532C43.2262 36.9532 40.5933 35.8626 38.652 33.9213C36.7107 31.98 35.6201 29.347 35.6201 26.6016C35.6201 23.8562 36.7107 21.2233 38.652 19.282C40.5933 17.3407 43.2262 16.2501 45.9716 16.2501C48.717 16.2501 51.35 17.3407 53.2913 19.282C55.2326 21.2233 56.3232 23.8562 56.3232 26.6016ZM44.406 22.8402C44.3092 22.7713 44.1954 22.7304 44.0769 22.7219C43.9585 22.7134 43.84 22.7377 43.7344 22.7921C43.6289 22.8464 43.5403 22.9288 43.4784 23.0302C43.4166 23.1316 43.3838 23.248 43.3838 23.3668V29.8365C43.3838 29.9552 43.4166 30.0717 43.4784 30.1731C43.5403 30.2744 43.6289 30.3568 43.7344 30.4112C43.84 30.4656 43.9585 30.4899 44.0769 30.4814C44.1954 30.4729 44.3092 30.432 44.406 30.3631L48.9348 27.1283C49.0186 27.0684 49.087 26.9894 49.1342 26.8978C49.1813 26.8062 49.2059 26.7047 49.2059 26.6016C49.2059 26.4986 49.1813 26.3971 49.1342 26.3055C49.087 26.2139 49.0186 26.1349 48.9348 26.075L44.406 22.8402Z" fill="white"/>
</g>
<path d="M85.9558 27.0178C85.9558 25.8308 86.149 24.9061 86.5354 24.2436C86.9219 23.5742 87.5982 23.2395 88.5643 23.2395C89.5236 23.2395 90.1964 23.5742 90.5829 24.2436C90.9693 24.9061 91.1626 25.8308 91.1626 27.0178C91.1626 28.2255 90.9693 29.164 90.5829 29.8334C90.1964 30.5028 89.5236 30.8375 88.5643 30.8375C87.5982 30.8375 86.9219 30.5028 86.5354 29.8334C86.149 29.164 85.9558 28.2255 85.9558 27.0178ZM90.2309 27.0178C90.2309 26.4174 90.1895 25.9102 90.1067 25.4961C90.0308 25.0752 89.8686 24.737 89.6202 24.4817C89.3787 24.2264 89.0267 24.0987 88.5643 24.0987C88.0951 24.0987 87.7362 24.2264 87.4878 24.4817C87.2462 24.737 87.0841 25.0752 87.0013 25.4961C86.9254 25.9102 86.8874 26.4174 86.8874 27.0178C86.8874 27.6389 86.9254 28.1599 87.0013 28.5809C87.0841 29.0019 87.2462 29.34 87.4878 29.5953C87.7362 29.8507 88.0951 29.9783 88.5643 29.9783C89.0267 29.9783 89.3787 29.8507 89.6202 29.5953C89.8686 29.34 90.0308 29.0019 90.1067 28.5809C90.1895 28.1599 90.2309 27.6389 90.2309 27.0178ZM92.9113 30.8996C92.7318 30.8996 92.58 30.8375 92.4558 30.7133C92.3316 30.5891 92.2695 30.4373 92.2695 30.2578C92.2695 30.0784 92.3316 29.9266 92.4558 29.8024C92.58 29.6782 92.7318 29.616 92.9113 29.616C93.0838 29.616 93.2287 29.6782 93.346 29.8024C93.4702 29.9266 93.5323 30.0784 93.5323 30.2578C93.5323 30.4373 93.4702 30.5891 93.346 30.7133C93.2287 30.8375 93.0838 30.8996 92.9113 30.8996ZM92.9113 26.4692C92.7318 26.4692 92.58 26.4071 92.4558 26.2829C92.3316 26.1586 92.2695 26.0068 92.2695 25.8274C92.2695 25.648 92.3316 25.4961 92.4558 25.3719C92.58 25.2477 92.7318 25.1856 92.9113 25.1856C93.0838 25.1856 93.2287 25.2477 93.346 25.3719C93.4702 25.4961 93.5323 25.648 93.5323 25.8274C93.5323 26.0068 93.4702 26.1586 93.346 26.2829C93.2287 26.4071 93.0838 26.4692 92.9113 26.4692ZM99.4316 24.1711H95.7982V26.5313C95.9569 26.3105 96.1916 26.131 96.5021 25.993C96.8126 25.8481 97.1473 25.7756 97.5062 25.7756C98.079 25.7756 98.5448 25.8964 98.9037 26.1379C99.2625 26.3726 99.5178 26.6797 99.6697 27.0592C99.8284 27.4319 99.9077 27.8287 99.9077 28.2496C99.9077 28.7465 99.8146 29.1916 99.6283 29.585C99.4419 29.9783 99.1555 30.2889 98.7691 30.5166C98.3895 30.7444 97.9168 30.8582 97.3509 30.8582C96.6263 30.8582 96.0397 30.6719 95.5912 30.2992C95.1426 29.9266 94.87 29.4297 94.7734 28.8086H95.6947C95.7844 29.202 95.9742 29.5091 96.264 29.7299C96.5539 29.9507 96.9196 30.0612 97.3613 30.0612C97.9065 30.0612 98.3171 29.899 98.5931 29.5746C98.8691 29.2434 99.0072 28.8086 99.0072 28.2703C99.0072 27.7321 98.8691 27.318 98.5931 27.0282C98.3171 26.7314 97.9099 26.583 97.3716 26.583C97.0059 26.583 96.685 26.6728 96.4089 26.8522C96.1398 27.0247 95.9431 27.2628 95.8189 27.5664H94.9287V23.343H99.4316V24.1711ZM100.911 24.2126V23.3534H102.857V30.8375H101.905V24.2126H100.911Z" fill="white"/>
<rect x="107.77" y="24.6779" width="367.219" height="4.32023" rx="2.16011" fill="white" fill-opacity="0.5"/>
<rect x="107.77" y="24.6779" width="122.262" height="4.32023" rx="2.16011" fill="white"/>
<circle cx="230.032" cy="26.8377" r="5.18427" fill="white"/>
<path d="M478.974 30.0819C479.85 29.378 480.537 28.8017 481.034 28.3532C481.531 27.8977 481.948 27.425 482.286 26.935C482.631 26.4381 482.804 25.9516 482.804 25.4754C482.804 25.0269 482.693 24.6749 482.473 24.4196C482.259 24.1573 481.91 24.0262 481.427 24.0262C480.958 24.0262 480.592 24.1746 480.33 24.4713C480.074 24.7612 479.936 25.1511 479.916 25.6411H479.005C479.032 24.8681 479.267 24.2712 479.709 23.8502C480.15 23.4293 480.72 23.2188 481.417 23.2188C482.127 23.2188 482.69 23.4155 483.104 23.8088C483.525 24.2022 483.735 24.7439 483.735 25.434C483.735 26.0068 483.563 26.5658 483.218 27.111C482.88 27.6493 482.493 28.1254 482.058 28.5395C481.624 28.9466 481.068 29.4228 480.392 29.968H483.953V30.7547H478.974V30.0819ZM485.497 30.8996C485.318 30.8996 485.166 30.8375 485.042 30.7133C484.918 30.5891 484.855 30.4373 484.855 30.2578C484.855 30.0784 484.918 29.9266 485.042 29.8024C485.166 29.6782 485.318 29.616 485.497 29.616C485.67 29.616 485.815 29.6782 485.932 29.8024C486.056 29.9266 486.118 30.0784 486.118 30.2578C486.118 30.4373 486.056 30.5891 485.932 30.7133C485.815 30.8375 485.67 30.8996 485.497 30.8996ZM485.497 26.4692C485.318 26.4692 485.166 26.4071 485.042 26.2829C484.918 26.1586 484.855 26.0068 484.855 25.8274C484.855 25.648 484.918 25.4961 485.042 25.3719C485.166 25.2477 485.318 25.1856 485.497 25.1856C485.67 25.1856 485.815 25.2477 485.932 25.3719C486.056 25.4961 486.118 25.648 486.118 25.8274C486.118 26.0068 486.056 26.1586 485.932 26.2829C485.815 26.4071 485.67 26.4692 485.497 26.4692ZM487.225 25.2374C487.273 24.6025 487.518 24.1056 487.96 23.7467C488.401 23.3879 488.974 23.2085 489.678 23.2085C490.147 23.2085 490.551 23.2947 490.889 23.4672C491.234 23.6329 491.493 23.8606 491.666 24.1504C491.845 24.4403 491.935 24.7681 491.935 25.1338C491.935 25.5617 491.811 25.9309 491.562 26.2414C491.321 26.552 491.003 26.7521 490.61 26.8418V26.8936C491.058 27.004 491.414 27.2214 491.676 27.5457C491.938 27.8701 492.069 28.2945 492.069 28.819C492.069 29.2123 491.98 29.5677 491.8 29.8852C491.621 30.1957 491.352 30.4407 490.993 30.6201C490.634 30.7996 490.203 30.8893 489.699 30.8893C488.967 30.8893 488.367 30.6995 487.898 30.3199C487.428 29.9335 487.166 29.3883 487.111 28.6844H488.022C488.07 29.0985 488.239 29.4366 488.529 29.6989C488.819 29.9611 489.205 30.0922 489.688 30.0922C490.172 30.0922 490.537 29.968 490.786 29.7196C491.041 29.4642 491.169 29.1364 491.169 28.7362C491.169 28.2186 490.996 27.8459 490.651 27.6182C490.306 27.3905 489.785 27.2766 489.088 27.2766H488.85V26.4899H489.098C489.733 26.483 490.213 26.3795 490.537 26.1793C490.862 25.9723 491.024 25.6549 491.024 25.227C491.024 24.8612 490.903 24.568 490.661 24.3471C490.427 24.1263 490.089 24.0159 489.647 24.0159C489.219 24.0159 488.874 24.1263 488.612 24.3471C488.35 24.568 488.194 24.8647 488.146 25.2374H487.225ZM493.093 24.2126V23.3534H495.039V30.8375H494.086V24.2126H493.093Z" fill="white"/>
<path d="M523.759 22.56C523.759 22.4116 523.8 22.2662 523.877 22.1395C523.954 22.0128 524.065 21.9098 524.197 21.8416C524.328 21.7735 524.476 21.7429 524.624 21.7532C524.772 21.7635 524.914 21.8143 525.035 21.9001L530.696 25.9137C530.802 25.9881 530.887 26.0864 530.947 26.2007C531.006 26.3149 531.038 26.4417 531.038 26.5705C531.039 26.6993 531.009 26.8264 530.95 26.9411C530.892 27.0559 530.807 27.155 530.702 27.2303L525.041 31.3038C524.92 31.3909 524.778 31.4429 524.629 31.4543C524.481 31.4656 524.332 31.4356 524.2 31.3678C524.067 31.3 523.956 31.1969 523.878 31.0698C523.8 30.9428 523.759 30.7968 523.759 30.6479V22.56ZM533.464 22.154C533.464 22.0467 533.421 21.9439 533.345 21.8681C533.27 21.7922 533.167 21.7496 533.059 21.7496C532.952 21.7496 532.849 21.7922 532.774 21.8681C532.698 21.9439 532.655 22.0467 532.655 22.154V31.0498C532.655 31.1571 532.698 31.2599 532.774 31.3358C532.849 31.4116 532.952 31.4542 533.059 31.4542C533.167 31.4542 533.27 31.4116 533.345 31.3358C533.421 31.2599 533.464 31.1571 533.464 31.0498V22.154Z" fill="white"/>
<g clip-path="url(#clip1_130_1312)">
<path d="M567.297 23.0128L564.417 25.3169H562.113V28.7731H564.417L567.297 31.0772V23.0128Z" stroke="white" stroke-width="1.29607" stroke-linecap="round" stroke-linejoin="round"/>
<path d="M571.945 22.9723C573.025 24.0525 573.632 25.5174 573.632 27.0448C573.632 28.5723 573.025 30.0371 571.945 31.1174M569.912 25.0057C570.452 25.5458 570.755 26.2782 570.755 27.0419C570.755 27.8057 570.452 28.5381 569.912 29.0782" stroke="white" stroke-width="1.29607" stroke-linecap="round" stroke-linejoin="round"/>
</g>
<g clip-path="url(#clip2_130_1312)">
<path d="M607.576 28.7727C608.53 28.7727 609.304 27.999 609.304 27.0446C609.304 26.0902 608.53 25.3165 607.576 25.3165C606.621 25.3165 605.848 26.0902 605.848 27.0446C605.848 27.999 606.621 28.7727 607.576 28.7727Z" stroke="white" stroke-width="1.29607" stroke-linecap="round" stroke-linejoin="round"/>
<path d="M611.838 28.7729C611.761 28.9467 611.738 29.1394 611.772 29.3262C611.806 29.5131 611.895 29.6855 612.028 29.8213L612.062 29.8559C612.169 29.9629 612.254 30.0899 612.312 30.2298C612.37 30.3696 612.4 30.5195 612.4 30.6709C612.4 30.8223 612.37 30.9723 612.312 31.1121C612.254 31.252 612.169 31.379 612.062 31.486C611.955 31.5931 611.828 31.6781 611.688 31.7361C611.549 31.7941 611.399 31.8239 611.247 31.8239C611.096 31.8239 610.946 31.7941 610.806 31.7361C610.666 31.6781 610.539 31.5931 610.432 31.486L610.398 31.4515C610.262 31.3187 610.089 31.2296 609.903 31.1957C609.716 31.1618 609.523 31.1847 609.349 31.2614C609.179 31.3344 609.034 31.4556 608.931 31.6102C608.829 31.7647 608.774 31.9458 608.773 32.1312V32.2291C608.773 32.5346 608.652 32.8277 608.436 33.0437C608.22 33.2598 607.927 33.3812 607.621 33.3812C607.316 33.3812 607.023 33.2598 606.807 33.0437C606.591 32.8277 606.469 32.5346 606.469 32.2291V32.1773C606.465 31.9866 606.403 31.8017 606.292 31.6466C606.181 31.4914 606.026 31.3733 605.847 31.3075C605.673 31.2308 605.481 31.2079 605.294 31.2418C605.107 31.2757 604.934 31.3647 604.799 31.4975L604.764 31.5321C604.657 31.6392 604.53 31.7242 604.39 31.7822C604.25 31.8401 604.1 31.87 603.949 31.87C603.798 31.87 603.648 31.8401 603.508 31.7822C603.368 31.7242 603.241 31.6392 603.134 31.5321C603.027 31.4251 602.942 31.2981 602.884 31.1582C602.826 31.0183 602.796 30.8684 602.796 30.717C602.796 30.5656 602.826 30.4157 602.884 30.2759C602.942 30.136 603.027 30.0089 603.134 29.9019L603.168 29.8674C603.301 29.7316 603.39 29.5592 603.424 29.3723C603.458 29.1855 603.435 28.9927 603.359 28.819C603.286 28.6486 603.164 28.5033 603.01 28.401C602.855 28.2986 602.674 28.2437 602.489 28.243H602.391C602.085 28.243 601.792 28.1216 601.576 27.9055C601.36 27.6895 601.239 27.3965 601.239 27.0909C601.239 26.7854 601.36 26.4923 601.576 26.2763C601.792 26.0602 602.085 25.9389 602.391 25.9389H602.443C602.633 25.9344 602.818 25.8727 602.973 25.7617C603.128 25.6508 603.247 25.4957 603.312 25.3167C603.389 25.143 603.412 24.9503 603.378 24.7634C603.344 24.5765 603.255 24.4041 603.122 24.2684L603.088 24.2338C602.981 24.1268 602.896 23.9997 602.838 23.8599C602.78 23.72 602.75 23.5701 602.75 23.4187C602.75 23.2673 602.78 23.1174 602.838 22.9775C602.896 22.8377 602.981 22.7106 603.088 22.6036C603.195 22.4965 603.322 22.4115 603.462 22.3536C603.602 22.2956 603.752 22.2658 603.903 22.2658C604.054 22.2658 604.204 22.2956 604.344 22.3536C604.484 22.4115 604.611 22.4965 604.718 22.6036L604.753 22.6382C604.888 22.771 605.061 22.8601 605.248 22.894C605.434 22.9278 605.627 22.905 605.801 22.8283H605.847C606.017 22.7553 606.163 22.634 606.265 22.4795C606.367 22.3249 606.422 22.1438 606.423 21.9585V21.8606C606.423 21.555 606.544 21.262 606.76 21.0459C606.977 20.8299 607.27 20.7085 607.575 20.7085C607.881 20.7085 608.174 20.8299 608.39 21.0459C608.606 21.262 608.727 21.555 608.727 21.8606V21.9124C608.728 22.0978 608.783 22.2789 608.885 22.4334C608.988 22.5879 609.133 22.7092 609.303 22.7822C609.477 22.8589 609.67 22.8818 609.857 22.8479C610.043 22.814 610.216 22.7249 610.352 22.5921L610.386 22.5576C610.493 22.4504 610.62 22.3655 610.76 22.3075C610.9 22.2495 611.05 22.2197 611.201 22.2197C611.353 22.2197 611.503 22.2495 611.642 22.3075C611.782 22.3655 611.909 22.4504 612.016 22.5576C612.123 22.6645 612.208 22.7916 612.266 22.9315C612.324 23.0713 612.354 23.2212 612.354 23.3726C612.354 23.524 612.324 23.6739 612.266 23.8138C612.208 23.9537 612.123 24.0807 612.016 24.1877L611.982 24.2223C611.849 24.358 611.76 24.5305 611.726 24.7173C611.692 24.9042 611.715 25.0969 611.792 25.2707V25.3167C611.865 25.4871 611.986 25.6324 612.14 25.7348C612.295 25.8371 612.476 25.892 612.661 25.8928H612.759C613.065 25.8928 613.358 26.0141 613.574 26.2302C613.79 26.4463 613.911 26.7393 613.911 27.0448C613.911 27.3504 613.79 27.6434 613.574 27.8595C613.358 28.0755 613.065 28.1969 612.759 28.1969H612.708C612.522 28.1976 612.341 28.2526 612.187 28.3549C612.032 28.4572 611.911 28.6025 611.838 28.7729V28.7729Z" stroke="white" stroke-width="1.29607" stroke-linecap="round" stroke-linejoin="round"/>
</g>
<path d="M644.975 21.8601H643.247C642.941 21.8601 642.648 21.9815 642.432 22.1975C642.216 22.4136 642.095 22.7066 642.095 23.0122V24.7403M652.463 24.7403V23.0122C652.463 22.7066 652.342 22.4136 652.126 22.1975C651.91 21.9815 651.617 21.8601 651.311 21.8601H649.583M649.583 32.2287H651.311C651.617 32.2287 651.91 32.1073 652.126 31.8912C652.342 31.6752 652.463 31.3821 652.463 31.0766V29.3485M642.095 29.3485V31.0766C642.095 31.3821 642.216 31.6752 642.432 31.8912C642.648 32.1073 642.941 32.2287 643.247 32.2287H644.975" stroke="white" stroke-width="1.29607" stroke-linecap="round" stroke-linejoin="round"/>
</g>
<defs>
<filter id="filter0_b_130_1312" x="-3.63566" y="-3.59757" width="701.149" height="60.398" filterUnits="userSpaceOnUse" color-interpolation-filters="sRGB">
<feFlood flood-opacity="0" result="BackgroundImageFix"/>
<feGaussianBlur in="BackgroundImageFix" stdDeviation="2.16011"/>
<feComposite in2="SourceAlpha" operator="in" result="effect1_backgroundBlur_130_1312"/>
<feBlend mode="normal" in="SourceGraphic" in2="effect1_backgroundBlur_130_1312" result="shape"/>
</filter>
<clipPath id="clip0_130_1312">
<rect width="20.703" height="20.703" fill="white" transform="translate(35.6201 16.2498)"/>
</clipPath>
<clipPath id="clip1_130_1312">
<rect width="13.8247" height="13.8247" fill="white" transform="translate(560.96 20.132)"/>
</clipPath>
<clipPath id="clip2_130_1312">
<rect width="13.8247" height="13.8247" fill="white" transform="translate(600.663 20.132)"/>
</clipPath>
</defs>
</svg>
