<svg width="55" height="55" viewBox="0 0 55 55" fill="none" xmlns="http://www.w3.org/2000/svg">
<path opacity="0.1" fill-rule="evenodd" clip-rule="evenodd" d="M27.9409 53.7944C42.2509 53.7944 53.8515 42.1938 53.8515 27.8838C53.8515 13.5737 42.2509 1.97314 27.9409 1.97314C13.6309 1.97314 2.03027 13.5737 2.03027 27.8838C2.03027 42.1938 13.6309 53.7944 27.9409 53.7944Z" stroke="#0A142F" stroke-width="2.22091"/>
<path d="M30.2998 21.2518H32.6812C32.9003 21.2518 33.0781 21.0842 33.0781 20.8778V18.6338C33.0781 18.4273 32.9003 18.2598 32.6812 18.2598H30.2998C27.893 18.2598 25.934 20.1051 25.934 22.3737V24.9917H23.1557C22.9366 24.9917 22.7588 25.1593 22.7588 25.3657V27.6097C22.7588 27.8162 22.9366 27.9837 23.1557 27.9837H25.934V35.8377C25.934 36.0441 26.1118 36.2117 26.3309 36.2117H28.7122C28.9313 36.2117 29.1091 36.0441 29.1091 35.8377V27.9837H31.8874C32.0581 27.9837 32.2097 27.8805 32.2645 27.7279L33.0582 25.4839C33.0987 25.3702 33.0781 25.2446 33.0035 25.1466C32.9281 25.0493 32.809 24.9917 32.6812 24.9917H29.1091V22.3737C29.1091 21.7552 29.6433 21.2518 30.2998 21.2518Z" fill="#0A142F"/>
</svg>
