<svg width="103" height="103" viewBox="0 0 103 103" fill="none" xmlns="http://www.w3.org/2000/svg">
<path d="M48.8892 56.6387H47.6909V49.0032C47.4025 49.2784 47.023 49.5535 46.5526 49.8287C46.0866 50.1038 45.6672 50.3102 45.2945 50.4478V49.2895C45.9646 48.9744 46.5504 48.5927 47.0519 48.1445C47.5534 47.6962 47.9084 47.2613 48.117 46.8397H48.8892V56.6387ZM51.9647 51.8257C51.9647 50.6719 52.0823 49.7443 52.3175 49.0431C52.5571 48.3375 52.9099 47.7939 53.3759 47.4122C53.8463 47.0305 54.4366 46.8397 55.1467 46.8397C55.6703 46.8397 56.1297 46.9462 56.5246 47.1592C56.9196 47.3678 57.2458 47.6718 57.5032 48.0712C57.7606 48.4662 57.9625 48.95 58.109 49.5224C58.2554 50.0905 58.3287 50.8583 58.3287 51.8257C58.3287 52.9707 58.2111 53.896 57.9758 54.6017C57.7406 55.3029 57.3878 55.8465 56.9174 56.2326C56.4514 56.6143 55.8612 56.8051 55.1467 56.8051C54.2058 56.8051 53.4669 56.4678 52.9299 55.7932C52.2864 54.9811 51.9647 53.6586 51.9647 51.8257ZM53.1962 51.8257C53.1962 53.4278 53.3826 54.4952 53.7554 55.0277C54.1326 55.5558 54.5964 55.8199 55.1467 55.8199C55.697 55.8199 56.1585 55.5536 56.5313 55.021C56.9085 54.4885 57.0971 53.4234 57.0971 51.8257C57.0971 50.2192 56.9085 49.1519 56.5313 48.6238C56.1585 48.0957 55.6925 47.8316 55.1333 47.8316C54.583 47.8316 54.1437 48.0646 53.8153 48.5306C53.4026 49.1253 53.1962 50.2236 53.1962 51.8257Z" fill="white"/>
<path d="M55.7906 35.3489C56.0504 35.7404 55.9435 36.2685 55.5519 36.5282L49.1708 40.7613C48.7792 41.0211 48.2512 40.9142 47.9914 40.5227C47.7316 40.1311 47.8385 39.6031 48.2301 39.3433L53.9022 35.5805L50.1395 29.9084C49.8797 29.5168 49.9866 28.9888 50.3781 28.729C50.7697 28.4692 51.2977 28.5761 51.5575 28.9677L55.7906 35.3489ZM44.944 37.0592L44.5792 36.2905L44.944 37.0592ZM37.5727 44.1283L38.3255 44.525L37.5727 44.1283ZM35.9099 54.2052L35.0697 54.339L35.0697 54.339L35.9099 54.2052ZM40.6192 63.2678L41.2117 62.6571L40.6192 63.2678ZM49.821 67.699L49.9291 66.8551L49.821 67.699ZM59.8426 65.7302L59.4233 64.9899L59.8426 65.7302ZM66.6841 58.1471L65.9047 57.8059L65.9047 57.8059L66.6841 58.1471ZM66.7864 48.1705C66.6792 47.713 66.9632 47.2552 67.4207 47.1481C67.8782 47.0409 68.336 47.3249 68.4432 47.7824L66.7864 48.1705ZM54.9128 36.6531C51.6686 35.9966 48.2991 36.4087 45.3088 37.8278L44.5792 36.2905C47.9018 34.7137 51.6457 34.2558 55.2504 34.9853L54.9128 36.6531ZM45.3088 37.8278C42.3185 39.2469 39.8684 41.5966 38.3255 44.525L36.82 43.7317C38.5343 40.478 41.2566 37.8673 44.5792 36.2905L45.3088 37.8278ZM38.3255 44.525C36.7826 47.4533 36.2299 50.8027 36.7502 54.0715L35.0697 54.339C34.4916 50.707 35.1057 46.9854 36.82 43.7317L38.3255 44.525ZM36.7502 54.0715C37.2705 57.3403 38.8358 60.3525 41.2117 62.6571L40.0268 63.8786C37.387 61.3179 35.6478 57.971 35.0697 54.339L36.7502 54.0715ZM41.2117 62.6571C43.5875 64.9617 46.646 66.4345 49.9291 66.8551L49.7129 68.543C46.065 68.0757 42.6667 66.4392 40.0268 63.8786L41.2117 62.6571ZM49.9291 66.8551C53.2123 67.2756 56.5433 66.6212 59.4233 64.9899L60.262 66.4705C57.062 68.2831 53.3608 69.0102 49.7129 68.543L49.9291 66.8551ZM59.4233 64.9899C62.3033 63.3585 64.5773 60.838 65.9047 57.8059L67.4635 58.4883C65.9886 61.8574 63.462 64.6579 60.262 66.4705L59.4233 64.9899ZM65.9047 57.8059C67.2321 54.7738 67.5414 51.3932 66.7864 48.1705L68.4432 47.7824C69.2821 51.3631 68.9384 55.1193 67.4635 58.4883L65.9047 57.8059Z" fill="white"/>
</svg>
