<svg width="260" height="364" viewBox="0 0 260 364" fill="none" xmlns="http://www.w3.org/2000/svg">
<path d="M60.262 322H56.5L50.208 312.474V322H46.446V306.556H50.208L56.5 316.126V306.556H60.262V322ZM75.111 309.724V322H71.349V320.328C70.9677 320.871 70.447 321.311 69.787 321.648C69.1417 321.971 68.423 322.132 67.631 322.132C66.6923 322.132 65.8637 321.927 65.145 321.516C64.4263 321.091 63.869 320.482 63.473 319.69C63.077 318.898 62.879 317.967 62.879 316.896V309.724H66.619V316.39C66.619 317.211 66.8317 317.849 67.257 318.304C67.6823 318.759 68.2543 318.986 68.973 318.986C69.7063 318.986 70.2857 318.759 70.711 318.304C71.1363 317.849 71.349 317.211 71.349 316.39V309.724H75.111ZM93.4772 309.592C95.0026 309.592 96.2126 310.054 97.1072 310.978C98.0166 311.902 98.4712 313.185 98.4712 314.828V322H94.7312V315.334C94.7312 314.542 94.5186 313.933 94.0932 313.508C93.6826 313.068 93.1106 312.848 92.3772 312.848C91.6439 312.848 91.0646 313.068 90.6392 313.508C90.2286 313.933 90.0232 314.542 90.0232 315.334V322H86.2832V315.334C86.2832 314.542 86.0706 313.933 85.6452 313.508C85.2346 313.068 84.6626 312.848 83.9292 312.848C83.1959 312.848 82.6166 313.068 82.1912 313.508C81.7806 313.933 81.5752 314.542 81.5752 315.334V322H77.8132V309.724H81.5752V311.264C81.9566 310.751 82.4552 310.347 83.0712 310.054C83.6872 309.746 84.3839 309.592 85.1612 309.592C86.0852 309.592 86.9066 309.79 87.6252 310.186C88.3586 310.582 88.9306 311.147 89.3412 311.88C89.7666 311.205 90.3459 310.655 91.0792 310.23C91.8126 309.805 92.6119 309.592 93.4772 309.592ZM112.674 315.664C112.674 316.016 112.652 316.383 112.608 316.764H104.094C104.153 317.527 104.395 318.113 104.82 318.524C105.26 318.92 105.796 319.118 106.426 319.118C107.365 319.118 108.018 318.722 108.384 317.93H112.388C112.183 318.737 111.809 319.463 111.266 320.108C110.738 320.753 110.071 321.259 109.264 321.626C108.458 321.993 107.556 322.176 106.558 322.176C105.356 322.176 104.285 321.919 103.346 321.406C102.408 320.893 101.674 320.159 101.146 319.206C100.618 318.253 100.354 317.138 100.354 315.862C100.354 314.586 100.611 313.471 101.124 312.518C101.652 311.565 102.386 310.831 103.324 310.318C104.263 309.805 105.341 309.548 106.558 309.548C107.746 309.548 108.802 309.797 109.726 310.296C110.65 310.795 111.369 311.506 111.882 312.43C112.41 313.354 112.674 314.432 112.674 315.664ZM108.824 314.674C108.824 314.029 108.604 313.515 108.164 313.134C107.724 312.753 107.174 312.562 106.514 312.562C105.884 312.562 105.348 312.745 104.908 313.112C104.483 313.479 104.219 313.999 104.116 314.674H108.824ZM118.421 311.77C118.861 311.095 119.411 310.567 120.071 310.186C120.731 309.79 121.464 309.592 122.271 309.592V313.574H121.237C120.298 313.574 119.594 313.779 119.125 314.19C118.656 314.586 118.421 315.29 118.421 316.302V322H114.659V309.724H118.421V311.77ZM129.657 322.176C128.454 322.176 127.369 321.919 126.401 321.406C125.448 320.893 124.692 320.159 124.135 319.206C123.592 318.253 123.321 317.138 123.321 315.862C123.321 314.601 123.6 313.493 124.157 312.54C124.714 311.572 125.477 310.831 126.445 310.318C127.413 309.805 128.498 309.548 129.701 309.548C130.904 309.548 131.989 309.805 132.957 310.318C133.925 310.831 134.688 311.572 135.245 312.54C135.802 313.493 136.081 314.601 136.081 315.862C136.081 317.123 135.795 318.238 135.223 319.206C134.666 320.159 133.896 320.893 132.913 321.406C131.945 321.919 130.86 322.176 129.657 322.176ZM129.657 318.92C130.376 318.92 130.984 318.656 131.483 318.128C131.996 317.6 132.253 316.845 132.253 315.862C132.253 314.879 132.004 314.124 131.505 313.596C131.021 313.068 130.42 312.804 129.701 312.804C128.968 312.804 128.359 313.068 127.875 313.596C127.391 314.109 127.149 314.865 127.149 315.862C127.149 316.845 127.384 317.6 127.853 318.128C128.337 318.656 128.938 318.92 129.657 318.92ZM150.199 309.724V322H146.437V320.328C146.056 320.871 145.535 321.311 144.875 321.648C144.23 321.971 143.511 322.132 142.719 322.132C141.78 322.132 140.952 321.927 140.233 321.516C139.514 321.091 138.957 320.482 138.561 319.69C138.165 318.898 137.967 317.967 137.967 316.896V309.724H141.707V316.39C141.707 317.211 141.92 317.849 142.345 318.304C142.77 318.759 143.342 318.986 144.061 318.986C144.794 318.986 145.374 318.759 145.799 318.304C146.224 317.849 146.437 317.211 146.437 316.39V309.724H150.199ZM157.895 322.176C156.824 322.176 155.871 321.993 155.035 321.626C154.199 321.259 153.539 320.761 153.055 320.13C152.571 319.485 152.3 318.766 152.241 317.974H155.959C156.003 318.399 156.201 318.744 156.553 319.008C156.905 319.272 157.338 319.404 157.851 319.404C158.32 319.404 158.68 319.316 158.929 319.14C159.193 318.949 159.325 318.707 159.325 318.414C159.325 318.062 159.142 317.805 158.775 317.644C158.408 317.468 157.814 317.277 156.993 317.072C156.113 316.867 155.38 316.654 154.793 316.434C154.206 316.199 153.7 315.84 153.275 315.356C152.85 314.857 152.637 314.19 152.637 313.354C152.637 312.65 152.828 312.012 153.209 311.44C153.605 310.853 154.177 310.391 154.925 310.054C155.688 309.717 156.59 309.548 157.631 309.548C159.171 309.548 160.381 309.929 161.261 310.692C162.156 311.455 162.669 312.467 162.801 313.728H159.325C159.266 313.303 159.076 312.965 158.753 312.716C158.445 312.467 158.034 312.342 157.521 312.342C157.081 312.342 156.744 312.43 156.509 312.606C156.274 312.767 156.157 312.995 156.157 313.288C156.157 313.64 156.34 313.904 156.707 314.08C157.088 314.256 157.675 314.432 158.467 314.608C159.376 314.843 160.117 315.077 160.689 315.312C161.261 315.532 161.76 315.899 162.185 316.412C162.625 316.911 162.852 317.585 162.867 318.436C162.867 319.155 162.662 319.8 162.251 320.372C161.855 320.929 161.276 321.369 160.513 321.692C159.765 322.015 158.892 322.176 157.895 322.176ZM175.991 312.848H173.967V322H170.205V312.848H168.841V309.724H170.205V309.372C170.205 307.861 170.637 306.717 171.503 305.94C172.368 305.148 173.637 304.752 175.309 304.752C175.587 304.752 175.793 304.759 175.925 304.774V307.964C175.206 307.92 174.7 308.023 174.407 308.272C174.113 308.521 173.967 308.969 173.967 309.614V309.724H175.991V312.848ZM181.521 311.77C181.961 311.095 182.511 310.567 183.171 310.186C183.831 309.79 184.564 309.592 185.371 309.592V313.574H184.337C183.398 313.574 182.694 313.779 182.225 314.19C181.755 314.586 181.521 315.29 181.521 316.302V322H177.759V309.724H181.521V311.77ZM198.741 315.664C198.741 316.016 198.719 316.383 198.675 316.764H190.161C190.219 317.527 190.461 318.113 190.887 318.524C191.327 318.92 191.862 319.118 192.493 319.118C193.431 319.118 194.084 318.722 194.451 317.93H198.455C198.249 318.737 197.875 319.463 197.333 320.108C196.805 320.753 196.137 321.259 195.331 321.626C194.524 321.993 193.622 322.176 192.625 322.176C191.422 322.176 190.351 321.919 189.413 321.406C188.474 320.893 187.741 320.159 187.213 319.206C186.685 318.253 186.421 317.138 186.421 315.862C186.421 314.586 186.677 313.471 187.191 312.518C187.719 311.565 188.452 310.831 189.391 310.318C190.329 309.805 191.407 309.548 192.625 309.548C193.813 309.548 194.869 309.797 195.793 310.296C196.717 310.795 197.435 311.506 197.949 312.43C198.477 313.354 198.741 314.432 198.741 315.664ZM194.891 314.674C194.891 314.029 194.671 313.515 194.231 313.134C193.791 312.753 193.241 312.562 192.581 312.562C191.95 312.562 191.415 312.745 190.975 313.112C190.549 313.479 190.285 313.999 190.183 314.674H194.891ZM212.297 315.664C212.297 316.016 212.275 316.383 212.231 316.764H203.717C203.776 317.527 204.018 318.113 204.443 318.524C204.883 318.92 205.419 319.118 206.049 319.118C206.988 319.118 207.641 318.722 208.007 317.93H212.011C211.806 318.737 211.432 319.463 210.889 320.108C210.361 320.753 209.694 321.259 208.887 321.626C208.081 321.993 207.179 322.176 206.181 322.176C204.979 322.176 203.908 321.919 202.969 321.406C202.031 320.893 201.297 320.159 200.769 319.206C200.241 318.253 199.977 317.138 199.977 315.862C199.977 314.586 200.234 313.471 200.747 312.518C201.275 311.565 202.009 310.831 202.947 310.318C203.886 309.805 204.964 309.548 206.181 309.548C207.369 309.548 208.425 309.797 209.349 310.296C210.273 310.795 210.992 311.506 211.505 312.43C212.033 313.354 212.297 314.432 212.297 315.664ZM208.447 314.674C208.447 314.029 208.227 313.515 207.787 313.134C207.347 312.753 206.797 312.562 206.137 312.562C205.507 312.562 204.971 312.745 204.531 313.112C204.106 313.479 203.842 313.999 203.739 314.674H208.447ZM66.9199 351.81V355H65.0059C63.6419 355 62.5785 354.67 61.8159 354.01C61.0532 353.335 60.6719 352.243 60.6719 350.732V345.848H59.1759V342.724H60.6719V339.732H64.4339V342.724H66.8979V345.848H64.4339V350.776C64.4339 351.143 64.5219 351.407 64.6979 351.568C64.8739 351.729 65.1672 351.81 65.5779 351.81H66.9199ZM72.7774 344.77C73.2174 344.095 73.7674 343.567 74.4274 343.186C75.0874 342.79 75.8207 342.592 76.6274 342.592V346.574H75.5934C74.6547 346.574 73.9507 346.779 73.4814 347.19C73.012 347.586 72.7774 348.29 72.7774 349.302V355H69.0154V342.724H72.7774V344.77ZM80.3175 341.448C79.6575 341.448 79.1149 341.257 78.6895 340.876C78.2789 340.48 78.0735 339.996 78.0735 339.424C78.0735 338.837 78.2789 338.353 78.6895 337.972C79.1149 337.576 79.6575 337.378 80.3175 337.378C80.9629 337.378 81.4909 337.576 81.9015 337.972C82.3269 338.353 82.5395 338.837 82.5395 339.424C82.5395 339.996 82.3269 340.48 81.9015 340.876C81.4909 341.257 80.9629 341.448 80.3175 341.448ZM82.1875 342.724V355H78.4255V342.724H82.1875ZM84.1658 348.84C84.1658 347.579 84.4005 346.471 84.8698 345.518C85.3538 344.565 86.0065 343.831 86.8278 343.318C87.6491 342.805 88.5658 342.548 89.5778 342.548C90.4431 342.548 91.1985 342.724 91.8438 343.076C92.5038 343.428 93.0098 343.89 93.3618 344.462V342.724H97.1238V355H93.3618V353.262C92.9951 353.834 92.4818 354.296 91.8218 354.648C91.1765 355 90.4211 355.176 89.5558 355.176C88.5585 355.176 87.6491 354.919 86.8278 354.406C86.0065 353.878 85.3538 353.137 84.8698 352.184C84.4005 351.216 84.1658 350.101 84.1658 348.84ZM93.3618 348.862C93.3618 347.923 93.0978 347.183 92.5698 346.64C92.0565 346.097 91.4258 345.826 90.6778 345.826C89.9298 345.826 89.2918 346.097 88.7638 346.64C88.2505 347.168 87.9938 347.901 87.9938 348.84C87.9938 349.779 88.2505 350.527 88.7638 351.084C89.2918 351.627 89.9298 351.898 90.6778 351.898C91.4258 351.898 92.0565 351.627 92.5698 351.084C93.0978 350.541 93.3618 349.801 93.3618 348.862ZM103.607 338.72V355H99.8454V338.72H103.607ZM110.248 348.862C110.248 347.586 110.505 346.471 111.018 345.518C111.546 344.565 112.272 343.831 113.196 343.318C114.135 342.805 115.205 342.548 116.408 342.548C117.948 342.548 119.231 342.951 120.258 343.758C121.299 344.565 121.981 345.701 122.304 347.168H118.3C117.963 346.229 117.31 345.76 116.342 345.76C115.653 345.76 115.103 346.031 114.692 346.574C114.281 347.102 114.076 347.865 114.076 348.862C114.076 349.859 114.281 350.629 114.692 351.172C115.103 351.7 115.653 351.964 116.342 351.964C117.31 351.964 117.963 351.495 118.3 350.556H122.304C121.981 351.993 121.299 353.123 120.258 353.944C119.217 354.765 117.933 355.176 116.408 355.176C115.205 355.176 114.135 354.919 113.196 354.406C112.272 353.893 111.546 353.159 111.018 352.206C110.505 351.253 110.248 350.138 110.248 348.862ZM129.904 355.176C128.701 355.176 127.616 354.919 126.648 354.406C125.695 353.893 124.939 353.159 124.382 352.206C123.839 351.253 123.568 350.138 123.568 348.862C123.568 347.601 123.847 346.493 124.404 345.54C124.961 344.572 125.724 343.831 126.692 343.318C127.66 342.805 128.745 342.548 129.948 342.548C131.151 342.548 132.236 342.805 133.204 343.318C134.172 343.831 134.935 344.572 135.492 345.54C136.049 346.493 136.328 347.601 136.328 348.862C136.328 350.123 136.042 351.238 135.47 352.206C134.913 353.159 134.143 353.893 133.16 354.406C132.192 354.919 131.107 355.176 129.904 355.176ZM129.904 351.92C130.623 351.92 131.231 351.656 131.73 351.128C132.243 350.6 132.5 349.845 132.5 348.862C132.5 347.879 132.251 347.124 131.752 346.596C131.268 346.068 130.667 345.804 129.948 345.804C129.215 345.804 128.606 346.068 128.122 346.596C127.638 347.109 127.396 347.865 127.396 348.862C127.396 349.845 127.631 350.6 128.1 351.128C128.584 351.656 129.185 351.92 129.904 351.92ZM150.446 342.724V355H146.684V353.328C146.303 353.871 145.782 354.311 145.122 354.648C144.477 354.971 143.758 355.132 142.966 355.132C142.027 355.132 141.199 354.927 140.48 354.516C139.761 354.091 139.204 353.482 138.808 352.69C138.412 351.898 138.214 350.967 138.214 349.896V342.724H141.954V349.39C141.954 350.211 142.167 350.849 142.592 351.304C143.017 351.759 143.589 351.986 144.308 351.986C145.041 351.986 145.621 351.759 146.046 351.304C146.471 350.849 146.684 350.211 146.684 349.39V342.724H150.446ZM156.91 344.77C157.35 344.095 157.9 343.567 158.56 343.186C159.22 342.79 159.954 342.592 160.76 342.592V346.574H159.726C158.788 346.574 158.084 346.779 157.614 347.19C157.145 347.586 156.91 348.29 156.91 349.302V355H153.148V342.724H156.91V344.77ZM167.552 355.176C166.482 355.176 165.528 354.993 164.692 354.626C163.856 354.259 163.196 353.761 162.712 353.13C162.228 352.485 161.957 351.766 161.898 350.974H165.616C165.66 351.399 165.858 351.744 166.21 352.008C166.562 352.272 166.995 352.404 167.508 352.404C167.978 352.404 168.337 352.316 168.586 352.14C168.85 351.949 168.982 351.707 168.982 351.414C168.982 351.062 168.799 350.805 168.432 350.644C168.066 350.468 167.472 350.277 166.65 350.072C165.77 349.867 165.037 349.654 164.45 349.434C163.864 349.199 163.358 348.84 162.932 348.356C162.507 347.857 162.294 347.19 162.294 346.354C162.294 345.65 162.485 345.012 162.866 344.44C163.262 343.853 163.834 343.391 164.582 343.054C165.345 342.717 166.247 342.548 167.288 342.548C168.828 342.548 170.038 342.929 170.918 343.692C171.813 344.455 172.326 345.467 172.458 346.728H168.982C168.924 346.303 168.733 345.965 168.41 345.716C168.102 345.467 167.692 345.342 167.178 345.342C166.738 345.342 166.401 345.43 166.166 345.606C165.932 345.767 165.814 345.995 165.814 346.288C165.814 346.64 165.998 346.904 166.364 347.08C166.746 347.256 167.332 347.432 168.124 347.608C169.034 347.843 169.774 348.077 170.346 348.312C170.918 348.532 171.417 348.899 171.842 349.412C172.282 349.911 172.51 350.585 172.524 351.436C172.524 352.155 172.319 352.8 171.908 353.372C171.512 353.929 170.933 354.369 170.17 354.692C169.422 355.015 168.55 355.176 167.552 355.176ZM186.398 348.664C186.398 349.016 186.376 349.383 186.332 349.764H177.818C177.877 350.527 178.119 351.113 178.544 351.524C178.984 351.92 179.519 352.118 180.15 352.118C181.089 352.118 181.741 351.722 182.108 350.93H186.112C185.907 351.737 185.533 352.463 184.99 353.108C184.462 353.753 183.795 354.259 182.988 354.626C182.181 354.993 181.279 355.176 180.282 355.176C179.079 355.176 178.009 354.919 177.07 354.406C176.131 353.893 175.398 353.159 174.87 352.206C174.342 351.253 174.078 350.138 174.078 348.862C174.078 347.586 174.335 346.471 174.848 345.518C175.376 344.565 176.109 343.831 177.048 343.318C177.987 342.805 179.065 342.548 180.282 342.548C181.47 342.548 182.526 342.797 183.45 343.296C184.374 343.795 185.093 344.506 185.606 345.43C186.134 346.354 186.398 347.432 186.398 348.664ZM182.548 347.674C182.548 347.029 182.328 346.515 181.888 346.134C181.448 345.753 180.898 345.562 180.238 345.562C179.607 345.562 179.072 345.745 178.632 346.112C178.207 346.479 177.943 346.999 177.84 347.674H182.548ZM193.377 355.176C192.306 355.176 191.353 354.993 190.517 354.626C189.681 354.259 189.021 353.761 188.537 353.13C188.053 352.485 187.781 351.766 187.723 350.974H191.441C191.485 351.399 191.683 351.744 192.035 352.008C192.387 352.272 192.819 352.404 193.333 352.404C193.802 352.404 194.161 352.316 194.411 352.14C194.675 351.949 194.807 351.707 194.807 351.414C194.807 351.062 194.623 350.805 194.257 350.644C193.89 350.468 193.296 350.277 192.475 350.072C191.595 349.867 190.861 349.654 190.275 349.434C189.688 349.199 189.182 348.84 188.757 348.356C188.331 347.857 188.119 347.19 188.119 346.354C188.119 345.65 188.309 345.012 188.691 344.44C189.087 343.853 189.659 343.391 190.407 343.054C191.169 342.717 192.071 342.548 193.113 342.548C194.653 342.548 195.863 342.929 196.743 343.692C197.637 344.455 198.151 345.467 198.283 346.728H194.807C194.748 346.303 194.557 345.965 194.235 345.716C193.927 345.467 193.516 345.342 193.003 345.342C192.563 345.342 192.225 345.43 191.991 345.606C191.756 345.767 191.639 345.995 191.639 346.288C191.639 346.64 191.822 346.904 192.189 347.08C192.57 347.256 193.157 347.432 193.949 347.608C194.858 347.843 195.599 348.077 196.171 348.312C196.743 348.532 197.241 348.899 197.667 349.412C198.107 349.911 198.334 350.585 198.349 351.436C198.349 352.155 198.143 352.8 197.733 353.372C197.337 353.929 196.757 354.369 195.995 354.692C195.247 355.015 194.374 355.176 193.377 355.176Z" fill="#303030"/>
<path d="M200 0C215.913 0 231.174 6.32141 242.426 17.5736C253.679 28.8258 260 44.087 260 60V200C260 215.913 253.679 231.174 242.426 242.426C231.174 253.679 215.913 260 200 260H60C44.087 260 28.8258 253.679 17.5736 242.426C6.32141 231.174 0 215.913 0 200L0 60C0 44.087 6.32141 28.8258 17.5736 17.5736C28.8258 6.32141 44.087 0 60 0L200 0Z" fill="#3BAAE1"/>
<path d="M30.0884 29.021C30.3174 28.082 30.4944 27.523 30.4944 27.498L31.4594 27.828C31.4594 27.853 31.2814 28.361 31.0784 29.25L30.0884 29.021Z" fill="#87C0F4"/>
<path d="M16.579 221.483L16.554 220.468C17.5422 220.428 18.5263 220.318 19.499 220.139L19.677 221.129C18.6565 221.34 17.6189 221.459 16.577 221.484L16.579 221.483ZM13.456 221.283C12.4087 221.091 11.3969 220.74 10.456 220.242L10.938 219.354C11.7944 219.795 12.7093 220.111 13.655 220.294L13.455 221.283H13.456ZM22.749 220.395H22.649L22.369 219.43L22.446 219.404C23.303 219.134 24.174 218.827 25.188 218.439L25.569 219.379C24.815 219.679 23.814 220.067 22.751 220.395H22.749ZM7.92204 218.283C7.20077 217.506 6.6013 216.624 6.14404 215.668L7.05804 215.212C7.48102 216.081 8.02844 216.883 8.68304 217.594L7.92204 218.279V218.283ZM28.336 218.029L27.854 217.142C28.7131 216.656 29.5438 216.122 30.342 215.542L30.951 216.355C30.1146 216.966 29.2413 217.526 28.336 218.03V218.029ZM33.313 214.373L32.603 213.637C33.339 212.928 34.012 212.222 34.66 211.479L35.421 212.14C34.7579 212.92 34.055 213.666 33.315 214.374L33.313 214.373ZM37.35 209.751L36.539 209.142C37.019 208.486 37.65 207.615 38.265 206.679L39.103 207.238C38.55 208.079 37.955 208.964 37.351 209.751H37.35ZM40.778 204.673L39.916 204.14C40.381 203.396 40.881 202.573 41.49 201.551L42.353 202.059C41.83 202.959 41.33 203.793 40.779 204.674L40.778 204.673ZM43.878 199.442L42.99 198.935C43.324 198.355 43.652 197.762 43.999 197.135C44.1517 196.858 44.3067 196.579 44.464 196.296L45.352 196.778C44.823 197.757 44.352 198.632 43.88 199.443L43.878 199.442ZM46.823 194.136L45.936 193.654C46.392 192.792 46.879 191.895 47.383 190.987L48.271 191.469C47.777 192.359 47.29 193.255 46.824 194.135L46.823 194.136ZM49.692 188.803L48.805 188.321C49.013 187.928 49.2254 187.531 49.442 187.128C49.684 186.676 49.959 186.164 50.227 185.655L51.115 186.137C50.874 186.58 50.636 187.032 50.405 187.468C50.174 187.904 49.936 188.355 49.693 188.802L49.692 188.803ZM52.586 183.497L51.724 182.939C52.2919 182.062 52.9378 181.238 53.654 180.477L54.39 181.162C53.7289 181.892 53.1269 182.673 52.59 183.498L52.586 183.497ZM56.547 179.104L55.888 178.343L56.074 178.183C56.745 177.608 57.438 177.013 58.249 176.383L58.883 177.17C57.983 177.87 57.246 178.479 56.547 179.099V179.104ZM61.27 175.372L60.661 174.56C60.967 174.342 61.286 174.109 61.625 173.86H61.631C62.073 173.538 62.575 173.174 63.123 172.785L63.707 173.623C62.779 174.282 61.955 174.867 61.271 175.374L61.27 175.372ZM66.196 171.872L65.612 171.035C66.021 170.741 66.439 170.445 66.844 170.158C67.249 169.871 67.67 169.573 68.075 169.282L68.658 170.12C68.242 170.42 67.817 170.72 67.405 171.012L67.392 171.022C66.998 171.301 66.592 171.589 66.192 171.872H66.196ZM71.144 168.314L70.535 167.503C71.28 166.955 71.965 166.429 72.627 165.92L72.947 165.674L73.582 166.487C72.782 167.087 71.99 167.668 71.145 168.314H71.144ZM75.944 164.531L75.285 163.744C75.991 163.152 76.669 162.544 77.324 161.961L77.545 161.761L78.23 162.497C77.467 163.233 76.698 163.916 75.946 164.528L75.944 164.531ZM80.439 160.392L79.704 159.682C80.492 158.866 81.156 158.144 81.735 157.473L82.496 158.133C81.79 158.953 81.118 159.691 80.44 160.392H80.439ZM84.4 155.72L83.588 155.136C84.139 154.37 84.701 153.511 85.213 152.648L86.076 153.156C85.5656 154.041 85.0064 154.896 84.401 155.719L84.4 155.72ZM203.71 151.074H203.024V150.058H203.396C204.206 150.058 205.144 150.058 206.02 150.008L206.071 151.023H206.061C205.302 151.049 204.518 151.075 203.708 151.075L203.71 151.074ZM199.978 150.946C199.036 150.898 198.086 150.805 197.078 150.707L196.929 150.692L197.029 149.677C197.886 149.763 198.741 149.83 199.567 149.895L200.025 149.931L199.975 150.945L199.978 150.946ZM209.144 150.794L209.044 149.78C209.968 149.687 210.944 149.546 212.014 149.348L212.192 150.338C211.185 150.543 210.167 150.695 209.144 150.794ZM87.521 150.394L86.582 149.988C86.9896 149.086 87.3455 148.162 87.648 147.22L88.613 147.525C88.242 148.638 87.884 149.576 87.522 150.393L87.521 150.394ZM193.882 150.343C192.871 150.213 191.804 150.026 190.863 149.861L191.039 148.871C192.039 149.046 193.039 149.2 194.01 149.328L193.883 150.342L193.882 150.343ZM215.182 149.709L214.928 148.72C215.928 148.465 216.878 148.128 217.771 147.806L218.126 148.746C217.126 149.123 216.139 149.446 215.182 149.711V149.709ZM187.862 149.328C186.862 149.128 185.862 148.892 184.897 148.669H184.892L185.121 147.679C186.038 147.891 187.076 148.131 188.067 148.313L187.867 149.328H187.862ZM181.92 147.928L181.591 147.842C180.737 147.618 179.854 147.386 178.976 147.116L179.255 146.151L179.581 146.243C180.473 146.496 181.315 146.734 182.174 146.943L181.92 147.932V147.928ZM220.946 147.471L220.489 146.584C221.371 146.128 222.219 145.611 223.028 145.035L223.612 145.873C222.753 146.454 221.864 146.988 220.947 147.473L220.946 147.471ZM176.055 146.252C175.166 145.972 174.155 145.652 173.162 145.313L173.492 144.348C174.452 144.677 175.426 144.985 176.386 145.262L176.056 146.251L176.055 146.252ZM89.423 144.552L88.433 144.324C88.615 143.485 88.792 142.55 88.992 141.379L90.008 141.531C89.843 142.519 89.657 143.567 89.424 144.551L89.423 144.552ZM170.292 144.352C169.353 144.023 168.373 143.662 167.425 143.313L167.779 142.373C168.794 142.757 169.75 143.108 170.623 143.414L170.293 144.352H170.292ZM225.999 143.921L225.314 143.186C226.041 142.514 226.712 141.783 227.32 141.002L228.108 141.637C227.459 142.446 226.755 143.209 226.001 143.921H225.999ZM164.579 142.221L161.761 141.078L162.142 140.138L162.206 140.163C163.106 140.529 164.037 140.907 164.935 141.281L164.58 142.22L164.579 142.221ZM158.942 139.859C157.991 139.448 157.077 139.041 156.149 138.616L156.581 137.702C157.042 137.902 157.512 138.119 157.966 138.324C158.42 138.529 158.891 138.742 159.348 138.945L158.943 139.858L158.942 139.859ZM229.861 139.094L228.999 138.586C229.493 137.73 229.943 136.848 230.345 135.945L231.285 136.352C230.885 137.224 230.419 138.121 229.863 139.093L229.861 139.094ZM90.391 138.51L89.376 138.41V138.404C89.476 137.383 89.576 136.326 89.655 135.389L90.67 135.489C90.602 136.305 90.516 137.205 90.425 138.158L90.391 138.51ZM153.41 137.342C152.522 136.922 151.644 136.484 150.67 135.997L151.126 135.083C152.002 135.533 152.917 135.966 153.802 136.383L153.838 136.4L153.406 137.339L153.41 137.342ZM147.951 134.625C147.63 134.456 147.312 134.287 146.997 134.118C146.397 133.8 145.837 133.5 145.26 133.203L145.743 132.315C146.693 132.831 147.548 133.295 148.409 133.737L147.952 134.624L147.951 134.625ZM232.351 133.432L231.387 133.132C231.687 132.183 231.942 131.218 232.148 130.263L233.139 130.463C232.915 131.553 232.601 132.622 232.352 133.432H232.351ZM90.951 132.467L89.937 132.367C90.077 131.081 90.202 130.142 90.343 129.32L91.334 129.497C91.234 130.145 91.095 131.156 90.953 132.467H90.951ZM142.621 131.706C141.678 131.167 140.828 130.68 139.981 130.183L140.489 129.32C141.303 129.813 142.178 130.314 143.024 130.798L143.104 130.844L142.622 131.706H142.621ZM137.366 128.583C136.554 128.083 135.692 127.526 134.802 126.933L135.361 126.095C135.674 126.295 135.993 126.501 136.301 126.701C136.822 127.038 137.359 127.386 137.901 127.721L137.369 128.583H137.366ZM233.622 127.415L232.607 127.315C232.692 126.415 232.734 125.615 232.734 124.878V124.344L233.75 124.319V124.878C233.75 125.622 233.71 126.428 233.623 127.416L233.622 127.415ZM92.022 126.577L91.058 126.298C91.3497 125.298 91.7295 124.327 92.193 123.394L93.107 123.85C92.6636 124.721 92.2985 125.63 92.016 126.566L92.022 126.577ZM132.266 125.232C131.334 124.601 130.447 123.951 129.778 123.455L130.387 122.642C131.175 123.226 132.026 123.82 132.85 124.394L132.267 125.232H132.266ZM127.366 121.601C126.624 121.016 125.874 120.395 125.005 119.646L125.666 118.885C126.342 119.485 127.077 120.085 127.855 120.716L127.976 120.816L127.367 121.603L127.366 121.601ZM94.739 121.474L93.978 120.814C94.5754 120.133 95.2386 119.512 95.958 118.961L96.288 118.706L96.897 119.519L96.567 119.773C95.8872 120.258 95.2731 120.83 94.74 121.473L94.739 121.474ZM232.476 121.394C232.329 120.415 232.118 119.446 231.844 118.494L232.809 118.214C233.088 119.209 233.317 120.218 233.494 121.236L232.48 121.388L232.476 121.394ZM99.327 117.711L98.743 116.874C99.623 116.242 100.548 115.62 101.257 115.148L101.816 115.986C101.502 116.205 101.183 116.424 100.874 116.635C100.363 116.985 99.836 117.346 99.328 117.711H99.327ZM122.738 117.559C122.023 116.844 121.273 116.075 120.631 115.3L121.418 114.64C122.027 115.383 122.754 116.128 123.449 116.823L122.739 117.558L122.738 117.559ZM230.8 115.705C230.395 114.802 229.927 113.929 229.4 113.091L230.264 112.557C230.807 113.438 231.29 114.354 231.711 115.299L230.798 115.704L230.8 115.705ZM104.355 114.385L103.823 113.523C104.679 112.995 105.573 112.483 106.438 111.989L106.463 111.974L106.971 112.863C106.055 113.386 105.155 113.916 104.361 114.383L104.355 114.385ZM118.803 112.785C118.536 112.345 118.298 111.887 118.092 111.415C117.87 110.888 117.685 110.374 117.533 109.942L118.498 109.613L118.54 109.727C118.701 110.163 118.868 110.614 119.032 111.034C119.218 111.461 119.43 111.877 119.666 112.279L118.804 112.786L118.803 112.785ZM109.611 111.44L109.154 110.552C110.015 110.11 110.854 109.688 111.871 109.181L112.303 110.095C111.442 110.512 110.537 110.964 109.612 111.44H109.611ZM227.703 110.653C227.084 109.881 226.424 109.144 225.724 108.445L226.435 107.734C227.167 108.461 227.854 109.233 228.492 110.044L227.705 110.653H227.703ZM115.044 108.824L114.638 107.885C115.409 107.537 116.193 107.208 116.951 106.89L117 106.869L116.695 106.945C116.505 106.045 116.295 104.992 116.162 103.924L117.177 103.797C117.331 104.826 117.51 105.817 117.711 106.743L117.482 106.793L117.837 107.656L117.77 107.683C116.87 108.049 115.937 108.428 115.044 108.824ZM120.655 106.564L120.3 105.6C121.264 105.235 122.275 104.89 123.167 104.586L123.499 105.55L123.441 105.57C122.511 105.888 121.551 106.217 120.656 106.565L120.655 106.564ZM223.487 106.464C222.77 105.89 221.959 105.301 221.076 104.713L221.635 103.875C222.552 104.495 223.388 105.11 224.123 105.703L223.489 106.464H223.487ZM126.368 104.636L126.068 103.672C126.868 103.42 127.691 103.183 128.487 102.953L128.987 102.808L129.266 103.798C128.173 104.086 127.226 104.359 126.373 104.636H126.368ZM218.536 103.164C217.7 102.721 216.795 102.255 215.845 101.844L216.252 100.93C217.36 101.44 218.231 101.876 218.994 102.302L218.537 103.164H218.536ZM132.182 103.012L131.928 102.022C132.758 101.804 133.635 101.602 134.482 101.407L134.899 101.307L135.128 102.298L135.035 102.319C134.093 102.537 133.118 102.762 132.183 103.008L132.182 103.012ZM138.076 101.693L137.876 100.702C138.91 100.491 139.927 100.309 140.876 100.144L141.053 101.134C140.064 101.286 139.059 101.492 138.087 101.692L138.076 101.693ZM115.831 100.879C115.755 99.924 115.704 98.899 115.679 97.833L116.694 97.808C116.719 98.852 116.77 99.859 116.846 100.808L115.832 100.884L115.831 100.879ZM213.077 100.701C211.966 100.301 211.063 100.001 210.234 99.762L210.514 98.797L210.554 98.809C211.514 99.109 212.507 99.409 213.433 99.761L213.078 100.7L213.077 100.701ZM144.044 100.624L143.892 99.609C144.663 99.491 145.464 99.37 146.24 99.253L146.283 99.246L146.913 99.151L147.066 100.167C146.785 100.208 146.505 100.248 146.227 100.286C145.467 100.393 144.748 100.494 144.045 100.624H144.044ZM150.036 99.786L149.909 98.771C150.432 98.704 150.97 98.643 151.491 98.584C151.964 98.53 152.451 98.475 152.93 98.415L153.03 99.431C152.019 99.531 151.016 99.661 150.046 99.785H150.034L150.036 99.786ZM156.053 99.125L155.953 98.111C156.977 98.006 158.038 97.927 158.974 97.857L159.05 98.872C158.14 98.963 157.234 99.034 156.358 99.102L156.058 99.126L156.053 99.125ZM207.314 98.994C206.391 98.775 205.4 98.57 204.37 98.385L204.547 97.395C205.625 97.583 206.632 97.789 207.547 98.004L207.319 98.993L207.314 98.994ZM162.093 98.664L162.017 97.65C163.004 97.576 164.004 97.525 164.972 97.476H165.064L165.114 98.492H165.064C164.095 98.541 163.094 98.592 162.093 98.667V98.664ZM168.136 98.309L168.086 97.295C169.273 97.235 170.186 97.195 171.132 97.168L171.183 98.183C170.67 98.209 170.148 98.229 169.643 98.247H169.633C169.141 98.265 168.633 98.284 168.133 98.309H168.136ZM174.205 98.055L174.155 97.041C175.171 96.99 176.203 96.964 177.2 96.941L177.226 97.956C176.748 97.969 176.257 97.987 175.782 98.005C175.265 98.024 174.732 98.045 174.206 98.058L174.205 98.055ZM201.398 97.928C200.456 97.804 199.448 97.702 198.398 97.628L198.474 96.612C199.195 96.666 199.932 96.746 200.645 96.824H200.667C200.955 96.855 201.24 96.886 201.522 96.915L201.395 97.929L201.398 97.928ZM180.273 97.828L180.247 96.814C181.274 96.789 182.287 96.737 183.266 96.687L183.319 97.702L183.207 97.709C182.307 97.754 181.281 97.809 180.274 97.829L180.273 97.828ZM186.341 97.599L186.291 96.585C186.823 96.563 187.485 96.537 188.119 96.485C188.519 96.46 188.931 96.435 189.338 96.435L189.389 97.45C189.189 97.462 188.989 97.469 188.804 97.475C188.619 97.481 188.404 97.488 188.195 97.501C187.504 97.528 186.929 97.553 186.342 97.601L186.341 97.599ZM195.406 97.447C194.458 97.422 193.479 97.397 192.487 97.397H192.387V96.383H192.487C193.469 96.383 194.453 96.409 195.404 96.434H195.432L195.407 97.448L195.406 97.447ZM116.669 94.784H115.654C115.654 93.947 115.674 93.091 115.696 92.099V92.094L115.704 91.738L116.719 91.763C116.707 92.287 116.701 92.786 116.695 93.269V93.283C116.688 93.805 116.682 94.299 116.669 94.783V94.784ZM116.846 88.715L115.832 88.665V88.582C115.857 87.882 115.882 87.165 115.932 86.455L115.957 85.643L116.973 85.693L116.947 86.506C116.898 87.216 116.873 87.938 116.847 88.636V88.713L116.846 88.715ZM117.101 82.647L116.086 82.621C116.137 81.506 116.162 80.521 116.162 79.6L117.177 79.625C117.177 80.192 117.157 80.792 117.137 81.425V81.437C117.124 81.825 117.111 82.225 117.102 82.645L117.101 82.647ZM116.161 76.578C116.135 75.451 116.109 74.515 116.034 73.578L117.049 73.502C117.105 74.55 117.149 75.502 117.176 76.549L116.162 76.574L116.161 76.578ZM115.754 70.586C115.619 69.6039 115.433 68.6295 115.196 67.667L116.186 67.413C116.432 68.424 116.628 69.44 116.77 70.434L115.755 70.586H115.754ZM114.282 64.848C113.908 63.944 113.449 63.0775 112.912 62.26L113.75 61.701C114.326 62.5755 114.819 63.5018 115.222 64.468L114.283 64.848H114.282ZM58.044 60.912H57.714C56.78 60.912 55.857 60.887 54.972 60.836L55.023 59.82C55.884 59.871 56.764 59.896 57.714 59.896H58.044V60.91V60.912ZM61.117 60.812L61.064 59.794C61.939 59.748 62.828 59.661 63.77 59.569L64.06 59.541L64.16 60.556L63.85 60.586C62.889 60.678 61.984 60.765 61.115 60.811L61.117 60.812ZM51.925 60.507C50.9078 60.3603 49.8996 60.157 48.905 59.898L49.159 58.908C50.149 59.149 51.131 59.346 52.079 59.492L51.927 60.506L51.925 60.507ZM67.185 60.177L67.058 59.163C67.93 59.045 68.91 58.896 70.058 58.706L70.21 59.696C69.228 59.879 68.24 60.036 67.19 60.178L67.185 60.177ZM111.035 60.077C110.311 59.4343 109.52 58.8726 108.674 58.402L109.156 57.514C110.079 58.0105 110.94 58.6147 111.721 59.314L111.036 60.075L111.035 60.077ZM73.177 59.214L73 58.225L74.485 57.958L75.97 57.691L76.148 58.682C75.059 58.882 74.087 59.056 73.178 59.215L73.177 59.214ZM45.933 58.985C44.9693 58.6183 44.0283 58.1946 43.115 57.716L43.597 56.827C44.4702 57.2847 45.3691 57.6917 46.289 58.046L45.934 58.985H45.933ZM79.169 58.122L78.992 57.133L80.513 56.862H80.519L81.989 56.6L82.166 57.591C81.284 57.745 80.408 57.902 79.56 58.054H79.553L79.171 58.123L79.169 58.122ZM105.957 57.284C105.008 56.9879 104.041 56.7505 103.063 56.573L103.241 55.583C104.255 55.7767 105.257 56.0308 106.241 56.344L105.962 57.283L105.957 57.284ZM85.136 57.084L84.984 56.07C85.604 55.97 86.2001 55.88 86.776 55.796H86.786C87.207 55.735 87.604 55.677 88.005 55.614L88.132 56.63C87.075 56.769 86.025 56.939 85.132 57.086L85.136 57.084ZM91.128 56.297L91.028 55.282C92.106 55.182 93.128 55.104 94.075 55.053L94.126 56.069C93.184 56.118 92.205 56.193 91.126 56.298L91.128 56.297ZM100.116 56.145C99.15 56.068 98.17 56.018 97.116 55.992V54.971C98.1423 54.9687 99.168 55.0195 100.189 55.123L100.113 56.138L100.116 56.145ZM40.473 56.119C39.631 55.549 38.802 54.926 38.011 54.266L38.671 53.478C39.4348 54.1192 40.2315 54.72 41.058 55.278L40.475 56.115L40.473 56.119ZM35.773 52.133C35.0717 51.38 34.419 50.583 33.819 49.747L34.657 49.163C35.2256 49.9704 35.8537 50.7342 36.536 51.448L35.774 52.133H35.773ZM32.168 47.106C31.6823 46.1965 31.2583 45.2554 30.899 44.289L31.864 43.933C32.1965 44.8697 32.6041 45.778 33.083 46.649L32.17 47.106H32.168ZM30.036 41.311C29.8009 40.3078 29.6315 39.2903 29.529 38.265L30.545 38.165C30.6394 39.1481 30.8004 40.1237 31.027 41.085L30.037 41.313L30.036 41.311ZM30.391 35.167H29.377C29.3846 34.1403 29.4436 33.1147 29.554 32.094L30.57 32.221C30.479 33.086 30.42 34.049 30.392 35.166L30.391 35.167Z" fill="#87C0F4"/>
<path d="M4.82422 211.047L5.84022 210.996C5.87469 211.476 5.95132 211.952 6.06922 212.418L5.07922 212.618C4.87522 211.682 4.84922 211.072 4.82422 211.047Z" fill="#87C0F4"/>
<path d="M118.574 67.285C106.894 73.125 105.374 85.82 104.355 93.437C103.336 101.054 99.0231 111.465 92.4221 117.054C85.8211 122.643 80.2341 128.731 77.6951 142.188C75.1561 155.645 78.7111 165.04 74.9021 177.227C71.0931 189.414 59.1601 206.172 59.9221 219.883C60.6841 233.594 72.3631 232.071 72.3631 232.071H227.246C231.744 219.216 232.1 205.275 228.262 192.208C222.676 173.165 205.918 170.372 201.348 145.489C198.987 132.641 199.317 128.989 189.922 117.052C180.248 104.763 173.672 104.611 169.356 93.439C165.04 82.267 162.501 61.193 136.856 67.539C136.855 67.539 130.254 61.445 118.574 67.285Z" fill="#1F1F39"/>
<path d="M208.939 231.944H169.099L159.199 193.477L201.424 186.799L208.939 231.944Z" fill="#F9D2DD"/>
<path d="M34.2778 206.934C26.1518 205.407 12.9518 197.031 14.4728 179.258C15.9938 161.485 49.2578 109.18 49.2578 109.18C49.2578 109.18 43.9258 103.086 46.2108 95.723C48.4958 88.36 56.6218 86.328 61.9518 86.074C65.0342 85.8981 68.1242 86.2416 71.0928 87.09L82.7728 70.59C82.7728 70.59 85.3128 67.285 88.3598 68.807C91.4068 70.329 85.3128 80.233 85.3128 80.233L79.7268 91.66C79.7268 91.66 78.7108 101.56 76.4268 107.148C74.1428 112.736 72.8718 114.007 72.8718 114.007L60.6838 154.121L74.6518 150.313L61.9518 202.871C61.9518 202.871 42.4028 208.457 34.2778 206.934Z" fill="#FFEBF0"/>
<path d="M61.9541 202.872L74.6491 150.313L62.1571 153.713L49.7661 205.665C58.3231 204.547 61.9541 202.872 61.9541 202.872Z" fill="#F9ACC0"/>
<path d="M159.199 193.477L162.699 207.137L205.99 214.323L201.424 186.799L159.199 193.477Z" fill="#F9ACC0"/>
<path d="M205.918 206.172C205.918 206.172 200.078 148.535 171.133 139.649C142.188 130.763 122.133 133.555 112.988 136.349C103.843 139.143 64.7462 151.582 64.7462 151.582L56.3672 207.187L78.9672 204.902L75.1562 232.07H175.246C175.246 232.07 173.164 216.07 170.625 206.17L205.918 206.172Z" fill="#3D5CFF"/>
<path d="M205.918 206.172C205.918 206.172 200.078 148.535 171.133 139.649C142.188 130.763 122.133 133.555 112.988 136.349C103.843 139.143 64.7462 151.582 64.7462 151.582L56.3672 207.187L78.9672 204.902L75.1562 232.07H175.246C175.246 232.07 173.164 216.07 170.625 206.17L205.918 206.172Z" fill="#F3B909"/>
<path d="M200.357 181.949C196.473 177.58 186.139 167.4 173.723 166.816C163.465 166.334 160.923 160.037 158.666 154.502C157.219 150.947 155.873 147.57 152.75 145.666C147.088 142.213 141.273 144.066 133.961 146.402C130.568 147.556 127.109 148.505 123.602 149.246C117.025 150.541 113.014 147.57 110.779 144.853C109.294 143.002 108.182 140.881 107.504 138.607C107.486 138.544 107.481 138.477 107.489 138.412C107.497 138.347 107.519 138.284 107.552 138.227C107.585 138.17 107.629 138.12 107.682 138.081C107.735 138.042 107.795 138.013 107.859 137.998C107.922 137.98 107.989 137.975 108.054 137.983C108.12 137.991 108.183 138.012 108.24 138.045C108.297 138.079 108.346 138.123 108.386 138.176C108.425 138.229 108.453 138.289 108.469 138.353C109.112 140.49 110.165 142.482 111.569 144.218C114.569 147.849 118.526 149.195 123.401 148.255C126.868 147.505 130.292 146.564 133.656 145.437C140.943 143.101 147.24 141.095 153.286 144.802C156.686 146.884 158.186 150.566 159.634 154.12C161.868 159.655 164.179 165.368 173.802 165.8C186.596 166.38 197.186 176.82 201.144 181.263C201.189 181.312 201.223 181.37 201.245 181.433C201.267 181.496 201.276 181.563 201.271 181.629C201.266 181.696 201.248 181.761 201.217 181.82C201.187 181.879 201.144 181.932 201.093 181.974C200.994 182.062 200.87 182.115 200.738 182.126C200.665 182.129 200.592 182.115 200.526 182.084C200.46 182.053 200.402 182.007 200.357 181.949Z" fill="#EAEAFF"/>
<path d="M124.871 227.525C124.414 215.845 118.371 214.144 111.389 212.189C108.139 211.275 104.762 210.335 101.842 208.279C95.4181 203.785 96.1801 199.037 97.0691 193.527C97.6008 190.724 97.8308 187.873 97.7551 185.021C97.3231 176.896 90.7731 174.712 81.7341 171.721C80.0341 171.162 78.2551 170.553 76.4271 169.893C71.5761 168.136 68.9861 164.074 68.9341 158.183C68.9425 155.353 69.3971 152.543 70.2811 149.855L71.2461 150.185C70.3903 152.765 69.9531 155.466 69.9511 158.185C70.0271 163.669 72.3121 167.3 76.7811 168.925C78.5811 169.585 80.3611 170.169 82.0621 170.725C91.1521 173.746 98.3121 176.133 98.7941 184.944C98.8841 187.863 98.654 190.784 98.1081 193.653C97.2191 199.239 96.5851 203.301 102.475 207.415C105.268 209.37 108.543 210.284 111.717 211.173C118.777 213.155 125.455 215.007 125.934 227.449C125.983 228.928 126.119 230.403 126.34 231.867L125.274 232.045C125.053 230.547 124.918 229.038 124.871 227.525Z" fill="#EAEAFF"/>
<path d="M148.281 182.381C147.088 182.203 145.869 182 144.523 181.772C137.414 180.502 136.449 175.881 135.433 171.006C134.962 167.862 133.893 164.836 132.285 162.094C129.264 157.448 124.16 158.615 117.101 160.24C112.556 161.281 107.427 162.449 101.714 162.297C98.8172 162.285 95.985 161.441 93.5544 159.866C91.1237 158.29 89.1971 156.049 88.0038 153.41C86.6873 150.746 85.8698 147.863 85.5918 144.904L86.6078 144.828C86.8973 147.662 87.6883 150.421 88.9438 152.978C91.6348 158.335 95.9518 161.128 101.766 161.278C107.352 161.43 112.405 160.262 116.899 159.247C124.085 157.597 129.747 156.302 133.174 161.532C134.856 164.373 135.976 167.51 136.474 170.774C137.515 175.7 138.328 179.61 144.751 180.753C146.071 180.982 147.29 181.185 148.483 181.362C155.415 182.454 160.01 183.162 166.434 190.071L165.647 190.782C159.453 184.128 155.01 183.447 148.281 182.381Z" fill="#EAEAFF"/>
<path d="M109.18 94.961C105.625 98.008 107.656 104.355 112.48 106.133C117.304 107.911 118.574 106.641 118.574 106.641L116.289 94.453C115.215 93.738 113.934 93.3999 112.648 93.4919C111.361 93.5838 110.141 94.1006 109.18 94.961Z" fill="#F9ACC0"/>
<path d="M117.812 111.465C118.632 113.329 119.82 115.009 121.303 116.404C122.786 117.8 124.535 118.883 126.445 119.588C126.72 122.644 126.548 125.723 125.937 128.729C125.442 131.176 124.677 133.561 123.655 135.84C123.655 135.84 125.178 139.14 135.843 139.649C146.508 140.158 148.031 135.84 148.031 135.84C147.322 131.817 146.982 127.738 147.015 123.653C147.37 119.307 147.963 114.985 148.792 110.704C148.792 110.704 155.647 112.989 159.964 108.673C164.281 104.357 163.264 96.232 157.933 95.724C152.602 95.216 149.805 99.788 149.805 99.788C149.805 99.788 142.187 96.23 139.141 90.388C136.095 84.546 135.841 80.488 135.841 80.488C135.841 80.488 121.113 82.519 116.035 94.453C116.035 94.453 115.019 105.117 117.812 111.465Z" fill="#F9D2DD"/>
<path d="M123.779 101.055C123.293 100.999 122.848 100.755 122.54 100.376C122.231 99.9957 122.084 99.5101 122.129 99.0229C122.084 98.5359 122.232 98.0506 122.54 97.671C122.848 97.2914 123.293 97.0476 123.779 96.9919C124.265 97.0476 124.71 97.2914 125.018 97.671C125.327 98.0506 125.474 98.5359 125.429 99.0229C125.474 99.5101 125.327 99.9957 125.019 100.376C124.71 100.755 124.265 100.999 123.779 101.055Z" fill="#1F1F39"/>
<path d="M136.728 101.817C136.242 101.761 135.797 101.517 135.488 101.138C135.18 100.758 135.033 100.272 135.078 99.785C135.033 99.298 135.18 98.8127 135.489 98.4331C135.797 98.0535 136.242 97.8097 136.728 97.754C137.214 97.8097 137.659 98.0535 137.967 98.4331C138.275 98.8127 138.423 99.298 138.378 99.785C138.423 100.272 138.276 100.758 137.967 101.138C137.659 101.517 137.214 101.761 136.728 101.817Z" fill="#1F1F39"/>
<path d="M134.062 107.148C135.151 106.69 136.175 106.093 137.109 105.371C137.109 105.371 137.617 105.117 137.871 105.371C138.125 105.625 136.5 108.519 135.078 108.926C134.392 109.154 133.649 109.154 132.963 108.925C132.276 108.696 131.682 108.252 131.269 107.658C130.507 106.642 131.523 106.896 131.523 106.896C132.34 107.171 133.208 107.257 134.062 107.148Z" fill="#F95368"/>
<path d="M129.01 99.1C128.7 99.6222 128.445 100.175 128.249 100.75C128.167 101.013 128.133 101.288 128.149 101.563C128.149 101.639 128.174 101.69 128.174 101.741L128.25 101.941C128.307 102.073 128.373 102.2 128.45 102.322C128.629 102.556 128.86 102.746 129.124 102.878C129.387 103.01 129.678 103.081 129.973 103.084C129.66 103.181 129.326 103.19 129.008 103.109C128.669 103.032 128.365 102.845 128.145 102.576C128.031 102.442 127.93 102.298 127.845 102.144L127.745 101.915C127.715 101.842 127.69 101.74 127.665 101.639C127.613 101.291 127.639 100.937 127.741 100.6C127.953 99.98 128.262 99.3972 128.655 98.873C129.05 98.3665 129.502 97.9059 130 97.5L129.01 99.1Z" fill="#1F1F39"/>
<path d="M180.984 206.172C179.791 202.389 175.373 188.906 170.368 180.019C166.711 173.577 162.278 167.609 157.168 162.246C157.168 162.246 163.468 180.476 165.293 186.621C167.093 192.639 171.717 210.945 171.717 210.945C171.362 209.269 171.006 207.645 170.625 206.172H180.984Z" fill="#E1AB07"/>
<path d="M136.449 92.879C136.947 92.6941 137.468 92.5829 137.998 92.549C138.539 92.5135 139.082 92.5813 139.598 92.749C140.128 92.8979 140.587 93.2308 140.893 93.688C140.427 93.5112 139.94 93.3929 139.445 93.336C138.973 93.2898 138.497 93.2814 138.023 93.311C137.539 93.3366 137.057 93.3873 136.578 93.463L135.078 93.692C135.485 93.3443 135.949 93.0693 136.449 92.879Z" fill="#1F1F39"/>
<path d="M121.19 91.279C122.52 91.1165 123.866 91.4197 124.998 92.137C125.281 92.3217 125.537 92.5437 125.76 92.797C125.988 93.0448 126.138 93.3538 126.192 93.686C126.008 93.4379 125.774 93.2305 125.506 93.077C125.243 92.9266 124.972 92.791 124.694 92.671C124.139 92.4505 123.571 92.2639 122.994 92.112C122.409 91.9776 121.814 91.8943 121.215 91.863C120.606 91.863 119.971 91.863 119.336 91.913C119.903 91.5748 120.534 91.3588 121.19 91.279Z" fill="#1F1F39"/>
<path d="M234.098 231.816V232.656H25.8979V231.816H234.098Z" fill="#1F1F39"/>
<path d="M67.1331 110.653C64.7906 108.458 63.2451 105.545 62.7401 102.375C62.3591 99.887 62.5121 96.358 64.0861 94.504C64.2575 94.2776 64.4753 94.0904 64.7248 93.9547C64.9743 93.819 65.2498 93.738 65.5331 93.717C66.8531 93.717 67.3331 94.707 68.1481 96.358C68.4021 96.891 68.7071 97.475 69.0621 98.158C70.5651 100.877 74.8261 105.168 74.8511 105.217C74.8744 105.24 74.8929 105.268 74.9055 105.298C74.9181 105.329 74.9246 105.362 74.9246 105.395C74.9246 105.428 74.9181 105.46 74.9055 105.491C74.8929 105.521 74.8744 105.549 74.8511 105.572C74.8278 105.595 74.8001 105.614 74.7696 105.626C74.7392 105.639 74.7065 105.646 74.6736 105.646C74.6406 105.646 74.608 105.639 74.5775 105.626C74.547 105.614 74.5194 105.595 74.4961 105.572C74.3181 105.397 70.1291 101.207 68.6051 98.417C68.2251 97.729 67.9451 97.117 67.6651 96.586C66.8531 94.91 66.4731 94.225 65.5081 94.225C65.0864 94.2799 64.7034 94.4987 64.4421 94.834C63.5271 95.901 62.6391 98.517 63.1971 102.299C63.6957 105.35 65.1858 108.153 67.4371 110.272C67.4626 110.293 67.4835 110.32 67.4986 110.349C67.5137 110.379 67.5227 110.411 67.5251 110.444C67.5274 110.477 67.523 110.511 67.5122 110.542C67.5014 110.573 67.4843 110.602 67.4621 110.627C67.4412 110.654 67.414 110.675 67.3829 110.688C67.3517 110.701 67.3177 110.706 67.2841 110.703C67.2299 110.702 67.1773 110.684 67.1331 110.653Z" fill="#1F1F39"/>
<path d="M55.9098 101.435C51.9748 100.115 51.9238 98.236 51.9238 98.16C51.9217 98.1261 51.9269 98.0921 51.9389 98.0604C51.951 98.0286 51.9696 97.9998 51.9936 97.9758C52.0176 97.9518 52.0465 97.9332 52.0782 97.9211C52.11 97.9091 52.1439 97.9039 52.1778 97.906C52.2451 97.906 52.3097 97.9327 52.3574 97.9803C52.405 98.028 52.4318 98.0926 52.4318 98.16C52.4318 98.185 52.5318 99.785 56.0628 100.978C57.1487 101.327 58.2962 101.441 59.4296 101.314C60.563 101.187 61.6568 100.822 62.6388 100.242C62.6671 100.224 62.6988 100.211 62.7321 100.205C62.7653 100.199 62.7994 100.199 62.8324 100.207C62.8654 100.214 62.8967 100.227 62.9244 100.246C62.9522 100.266 62.976 100.29 62.9943 100.318C63.0126 100.347 63.0251 100.379 63.0312 100.412C63.0373 100.445 63.0368 100.479 63.0297 100.512C63.0225 100.545 63.009 100.576 62.9898 100.604C62.9706 100.632 62.9461 100.656 62.9178 100.674C61.5791 101.417 60.0812 101.826 58.5508 101.867C57.6532 101.862 56.762 101.717 55.9098 101.435Z" fill="#1F1F39"/>
<path d="M139.648 120.098C135.331 121.202 130.804 121.185 126.496 120.047C126.719 122.953 126.532 125.877 125.938 128.731C125.862 129.086 125.786 129.416 125.709 129.721C129.054 129.77 132.359 128.993 135.332 127.461C141.68 124.16 142.695 119.336 142.695 119.336C141.666 119.533 140.649 119.787 139.648 120.098Z" fill="#F9ACC0"/>
<path d="M47.6032 156.584C47.5905 156.518 47.6044 156.449 47.6418 156.393C47.6792 156.337 47.7372 156.298 47.8032 156.284L64.5182 152.872C64.5845 152.859 64.6531 152.873 64.7092 152.911C64.7653 152.948 64.8045 153.006 64.8182 153.072C64.8309 153.138 64.8171 153.207 64.7797 153.263C64.7423 153.319 64.6843 153.358 64.6182 153.372L47.9122 156.787H47.8622C47.8017 156.791 47.7418 156.772 47.694 156.735C47.6462 156.698 47.6139 156.644 47.6032 156.584Z" fill="#1F1F39"/>
<path d="M131.901 121.24C130.561 121.178 129.232 120.965 127.94 120.605C127.408 120.463 126.884 120.293 126.369 120.098C126.306 120.073 126.256 120.025 126.227 119.963C126.199 119.902 126.195 119.832 126.217 119.768C126.242 119.705 126.29 119.654 126.352 119.626C126.413 119.597 126.483 119.593 126.547 119.615C127.055 119.803 127.572 119.964 128.096 120.098C129.354 120.451 130.649 120.655 131.955 120.707C135.186 120.864 138.419 120.443 141.501 119.463C141.565 119.441 141.635 119.445 141.696 119.473C141.758 119.501 141.806 119.552 141.831 119.615C141.853 119.679 141.849 119.749 141.821 119.81C141.793 119.872 141.742 119.92 141.679 119.945C138.925 120.84 136.044 121.285 133.148 121.265C132.742 121.266 132.311 121.266 131.901 121.24Z" fill="#1F1F39"/>
<path d="M115.654 105.244C115.469 103.755 114.957 102.325 114.156 101.057C112.709 98.4141 111.49 97.8811 111.49 97.8571C111.458 97.8458 111.429 97.8278 111.405 97.8042C111.38 97.7806 111.361 97.7521 111.349 97.7205C111.337 97.6889 111.332 97.655 111.335 97.6213C111.337 97.5875 111.346 97.5547 111.363 97.5251C111.39 97.4639 111.438 97.4148 111.499 97.3868C111.56 97.3588 111.629 97.3539 111.693 97.3731C111.744 97.3981 113.065 97.9571 114.613 100.775C115.471 102.114 116.001 103.637 116.162 105.219C116.166 105.255 116.163 105.291 116.152 105.325C116.141 105.359 116.123 105.391 116.099 105.417C116.075 105.444 116.045 105.465 116.012 105.479C115.979 105.493 115.944 105.499 115.908 105.498C115.874 105.5 115.84 105.495 115.808 105.483C115.776 105.471 115.748 105.452 115.724 105.428C115.7 105.404 115.681 105.375 115.669 105.344C115.657 105.312 115.652 105.278 115.654 105.244Z" fill="#1F1F39"/>
<path d="M170.173 205.944C169.234 202.744 167.862 197.794 166.542 192.284C164.024 181.746 156.965 162.551 156.889 162.348C156.867 162.284 156.871 162.214 156.899 162.153C156.927 162.091 156.978 162.043 157.041 162.018C157.105 161.996 157.176 161.999 157.238 162.027C157.299 162.056 157.348 162.107 157.373 162.17C157.449 162.37 164.508 181.594 167.021 192.156C168.341 197.666 169.712 202.617 170.626 205.791C170.635 205.822 170.637 205.855 170.633 205.888C170.629 205.92 170.618 205.951 170.601 205.979C170.585 206.007 170.562 206.032 170.536 206.051C170.51 206.07 170.48 206.084 170.448 206.091C170.473 206.091 170.448 206.116 170.423 206.116C170.37 206.112 170.319 206.093 170.275 206.063C170.231 206.033 170.196 205.992 170.173 205.944Z" fill="#F3B909"/>
<path d="M96.7381 43.672C96.7214 43.8409 96.7214 44.0111 96.7381 44.18V43.672Z" fill="#EAEAFF"/>
<path d="M90.1198 55.5571C90.0229 55.5569 89.9261 55.5479 89.8308 55.5301H89.4288C89.2549 55.5319 89.0825 55.4991 88.9215 55.4334C88.7605 55.3677 88.6142 55.2706 88.4913 55.1476C88.3683 55.0247 88.2711 54.8784 88.2055 54.7174C88.1398 54.5564 88.1069 54.3839 88.1088 54.2101V45.0431H80.2598C79.5726 45.0442 78.892 44.9098 78.2568 44.6474C77.6217 44.385 77.0446 43.9998 76.5587 43.5139C76.0727 43.0281 75.6874 42.451 75.4249 41.816C75.1624 41.1809 75.0278 40.5002 75.0288 39.8131V24.6041C75.0278 23.9168 75.1623 23.2361 75.4249 22.601C75.6874 21.9659 76.0726 21.3888 76.5586 20.9028C77.0445 20.4169 77.6216 20.0316 78.2568 19.7691C78.8919 19.5066 79.5726 19.372 80.2598 19.3731H114.229C115.618 19.3744 116.95 19.9251 117.935 20.9051C118.92 21.8851 119.477 23.2148 119.485 24.6041V39.8381C119.486 40.5252 119.351 41.2058 119.088 41.8408C118.826 42.4758 118.441 43.0528 117.955 43.5386C117.469 44.0245 116.892 44.4097 116.257 44.6721C115.622 44.9346 114.941 45.0691 114.254 45.0681H101.791L91.0288 55.1991C90.909 55.3165 90.7668 55.4087 90.6106 55.4702C90.4545 55.5317 90.2876 55.5612 90.1198 55.5571ZM88.3548 24.5911C88.102 24.5889 87.8492 24.6016 87.5978 24.6291C87.3634 25.2791 87.2578 25.9686 87.2868 26.6591C87.356 28.6211 87.8981 30.5374 88.8668 32.2451C90.6167 35.2789 93.284 37.6794 96.4848 39.1011C101.717 38.3401 105.279 36.5781 107.073 33.8631C108.137 32.2688 108.53 30.319 108.165 28.4371C107.613 28.2947 107.045 28.2274 106.476 28.2371C104.615 28.254 102.808 28.8573 101.31 29.9611C98.0288 32.2951 97.3558 34.3041 97.2458 35.2931C97.1477 32.5621 96.2663 29.917 94.7068 27.6731C93.9735 26.6868 93.0134 25.8918 91.9077 25.3553C90.802 24.8189 89.5833 24.5567 88.3548 24.5911Z" fill="white"/>
<path d="M101.562 34.531C104.609 31.992 106.894 29.707 106.894 29.707C105.446 30.3931 104.083 31.2451 102.832 32.246C100.583 34.2252 98.463 36.3455 96.4839 38.594C96.4839 38.594 98.5149 37.07 101.562 34.531Z" fill="white"/>
<path d="M92.1679 32.246C93.3135 34.5471 94.7654 36.6825 96.4839 38.594C96.4839 38.594 95.2139 35.801 93.6909 32.754C92.5398 30.5945 91.1793 28.5534 89.6289 26.66C89.6289 26.66 89.8829 27.93 92.1679 32.246Z" fill="white"/>
<path d="M203.039 96.918C202.873 96.921 202.708 96.8909 202.553 96.8296C202.399 96.7684 202.258 96.6771 202.139 96.561L191.372 86.43H178.903C178.216 86.4311 177.535 86.2965 176.9 86.034C176.265 85.7715 175.688 85.3862 175.202 84.9002C174.716 84.4143 174.33 83.8372 174.068 83.2021C173.805 82.5669 173.671 81.8863 173.672 81.199V65.991C173.671 65.3038 173.805 64.6231 174.068 63.988C174.33 63.3528 174.716 62.7757 175.202 62.2898C175.688 61.8038 176.265 61.4186 176.9 61.1561C177.535 60.8935 178.216 60.759 178.903 60.76H212.872C214.256 60.7599 215.585 61.306 216.569 62.2796C217.553 63.2532 218.113 64.5758 218.128 65.96V81.174C218.129 81.8612 217.994 82.5419 217.732 83.1769C217.469 83.812 217.084 84.389 216.598 84.8749C216.112 85.3609 215.535 85.7461 214.9 86.0087C214.265 86.2713 213.584 86.4059 212.897 86.405H205.055V95.57C205.057 95.7439 205.024 95.9164 204.958 96.0774C204.893 96.2384 204.795 96.3846 204.672 96.5076C204.549 96.6305 204.403 96.7277 204.242 96.7934C204.081 96.859 203.909 96.8919 203.735 96.89H203.328C203.233 96.9083 203.136 96.9177 203.039 96.918ZM202.195 66.724C202.088 66.7242 201.982 66.7425 201.881 66.778L197.107 68.403C196.93 68.4682 196.777 68.5857 196.668 68.7398C196.559 68.8939 196.5 69.0774 196.498 69.266V79.854C196.494 79.9064 196.503 79.959 196.524 80.007C196.554 80.0944 196.611 80.1701 196.687 80.2239C196.762 80.2776 196.852 80.3066 196.945 80.307C196.991 80.3071 197.038 80.2997 197.082 80.285L202.49 78.431C202.683 78.3642 202.849 78.2366 202.964 78.0673C203.078 77.898 203.135 77.6961 203.125 77.492V67.667C203.12 67.5671 203.104 67.468 203.076 67.372V67.362C203.017 67.1754 202.899 67.0127 202.74 66.8979C202.582 66.7831 202.391 66.7221 202.195 66.724ZM189.595 66.724C189.343 66.73 189.104 66.8344 188.928 67.0148C188.752 67.1952 188.654 67.4372 188.655 67.689V77.515C188.654 77.711 188.715 77.9023 188.829 78.0617C188.943 78.2211 189.104 78.3406 189.29 78.403L194.695 80.26C194.734 80.2802 194.778 80.2889 194.822 80.285C194.881 80.288 194.939 80.279 194.994 80.2587C195.05 80.2384 195.1 80.2071 195.143 80.1667C195.185 80.1263 195.22 80.0777 195.243 80.0238C195.266 79.9699 195.279 79.9118 195.279 79.853V69.266C195.277 69.0776 195.218 68.8943 195.109 68.7402C195.001 68.5861 194.848 68.4686 194.672 68.403L189.896 66.777C189.797 66.7481 189.695 66.7313 189.592 66.727L189.595 66.724Z" fill="white"/>
<path d="M143.33 107.91C140.596 107.91 138.379 106.546 138.379 104.863C138.379 103.18 140.596 101.816 143.33 101.816C146.064 101.816 148.279 103.18 148.279 104.863C148.279 106.546 146.065 107.91 143.33 107.91Z" fill="#F9ACC0"/>
<path d="M115.984 102.705C116.078 104.256 116.273 105.8 116.568 107.326C117.483 107.717 118.468 107.916 119.463 107.91C122.205 107.91 124.414 106.539 124.414 104.863C124.414 103.187 122.205 101.816 119.463 101.816C118.243 101.785 117.039 102.093 115.984 102.705V102.705Z" fill="#F9ACC0"/>
<path d="M148.764 110.906C148.778 110.84 148.787 110.773 148.789 110.706C149.904 111.04 151.055 111.236 152.217 111.29C152.192 111.112 152.141 110.935 152.09 110.706C151.075 107.656 154.375 101.816 154.375 101.816C154.375 101.816 150.821 102.578 149.297 107.656C148.969 108.709 148.79 109.803 148.764 110.906V110.906Z" fill="#F9ACC0"/>
<path d="M148.84 108.52C148.808 108.509 148.779 108.491 148.754 108.468C148.729 108.445 148.709 108.418 148.695 108.387C148.681 108.356 148.673 108.323 148.672 108.289C148.67 108.255 148.676 108.222 148.688 108.19C149.269 106.713 150.046 105.321 150.998 104.051C151.994 102.546 153.335 101.302 154.909 100.42C154.967 100.395 155.032 100.391 155.092 100.41C155.153 100.428 155.205 100.467 155.239 100.52C155.264 100.578 155.268 100.643 155.25 100.703C155.231 100.764 155.192 100.816 155.139 100.85C153.648 101.704 152.378 102.896 151.43 104.33C150.522 105.564 149.764 106.903 149.172 108.316C149.16 108.376 149.129 108.431 149.083 108.472C149.037 108.513 148.979 108.539 148.918 108.545C148.904 108.547 148.89 108.546 148.876 108.542C148.863 108.537 148.85 108.53 148.84 108.52Z" fill="#1F1F39"/>
<path d="M85.592 174.18C85.592 174.18 82.52 185.885 75.41 195.28C70.484 201.805 61.775 205.512 56.875 207.162L78.787 204.928L85.592 174.18Z" fill="#E1AB07"/>
</svg>
