<svg width="55" height="55" viewBox="0 0 55 55" fill="none" xmlns="http://www.w3.org/2000/svg">
<path opacity="0.1" fill-rule="evenodd" clip-rule="evenodd" d="M27.9106 53.7944C42.2207 53.7944 53.8212 42.1938 53.8212 27.8838C53.8212 13.5737 42.2207 1.97314 27.9106 1.97314C13.6006 1.97314 2 13.5737 2 27.8838C2 42.1938 13.6006 53.7944 27.9106 53.7944Z" stroke="#0A142F" stroke-width="2.22091"/>
<path d="M21.9636 22.6529C23.1768 22.6529 24.1602 21.6694 24.1602 20.4563C24.1602 19.2432 23.1768 18.2598 21.9636 18.2598C20.7505 18.2598 19.7671 19.2432 19.7671 20.4563C19.7671 21.6694 20.7505 22.6529 21.9636 22.6529Z" fill="#0A142F"/>
<path d="M23.7941 24.1199H20.1332C19.9311 24.1199 19.7671 24.2839 19.7671 24.486V35.4687C19.7671 35.6708 19.9311 35.8348 20.1332 35.8348H23.7941C23.9962 35.8348 24.1602 35.6708 24.1602 35.4687V24.486C24.1602 24.2839 23.9962 24.1199 23.7941 24.1199Z" fill="#0A142F"/>
<path d="M34.7034 23.5105C33.1387 22.9745 31.1816 23.4453 30.0079 24.2895C29.9676 24.1321 29.8241 24.0149 29.6535 24.0149H25.9926C25.7905 24.0149 25.6265 24.179 25.6265 24.381V35.3638C25.6265 35.5659 25.7905 35.7299 25.9926 35.7299H29.6535C29.8556 35.7299 30.0196 35.5659 30.0196 35.3638V27.4709C30.6112 26.9613 31.3734 26.7987 31.9972 27.0638C32.602 27.3193 32.9483 27.9431 32.9483 28.7741V35.3638C32.9483 35.5659 33.1123 35.7299 33.3144 35.7299H36.9753C37.1774 35.7299 37.3414 35.5659 37.3414 35.3638V28.0368C37.2997 25.0283 35.8844 23.9146 34.7034 23.5105Z" fill="#0A142F"/>
</svg>
