<svg width="19" height="19" viewBox="0 0 19 19" fill="none" xmlns="http://www.w3.org/2000/svg">
<path d="M16.7658 4.32689L9.6408 1.95189C9.54911 1.92237 9.45047 1.92237 9.35877 1.95189L2.2412 4.32689H2.22635L2.1744 4.35658H2.16698L2.11502 4.38626C2.11502 4.38823 2.11424 4.39012 2.11285 4.39151C2.11146 4.3929 2.10957 4.39369 2.1076 4.39369L2.05565 4.43822L2.01854 4.48275C2.01854 4.48472 2.01776 4.4866 2.01637 4.488C2.01497 4.48939 2.01309 4.49017 2.01112 4.49017L1.98143 4.54212C1.98143 4.54954 1.97401 4.54954 1.97401 4.55697L1.95174 4.60892C1.94251 4.62739 1.93744 4.64766 1.9369 4.66829C1.93082 4.69001 1.92831 4.71257 1.92948 4.73509V10.6726C1.92948 10.7907 1.97639 10.904 2.05991 10.9875C2.14342 11.071 2.25669 11.1179 2.37479 11.1179C2.49289 11.1179 2.60616 11.071 2.68967 10.9875C2.77319 10.904 2.8201 10.7907 2.8201 10.6726V5.36595L5.69237 6.32337C5.17262 7.08422 4.89573 7.98476 4.89823 8.90619C4.89876 9.73792 5.12472 10.554 5.55207 11.2675C5.97942 11.9811 6.59218 12.5655 7.32518 12.9585C5.8146 13.4558 4.51871 14.4533 3.65135 15.7863C3.61919 15.8355 3.59703 15.8906 3.58616 15.9483C3.57528 16.0061 3.57588 16.0655 3.58794 16.123C3.6 16.1806 3.62328 16.2352 3.65645 16.2837C3.68961 16.3323 3.73202 16.3738 3.78124 16.406C3.83046 16.4382 3.88553 16.4603 3.94331 16.4712C4.00109 16.4821 4.06045 16.4815 4.118 16.4694C4.17554 16.4573 4.23015 16.4341 4.2787 16.4009C4.32725 16.3677 4.3688 16.3253 4.40096 16.2761C4.95264 15.4261 5.70809 14.7274 6.5986 14.2437C7.48911 13.7601 8.48641 13.5067 9.49979 13.5067C10.5132 13.5067 11.5105 13.7601 12.401 14.2437C13.2915 14.7274 14.0469 15.4261 14.5986 16.2761C14.6412 16.3372 14.6977 16.3873 14.7636 16.4222C14.8294 16.457 14.9026 16.4757 14.9771 16.4765C15.0621 16.4771 15.1451 16.4511 15.2146 16.4023C15.2639 16.3706 15.3064 16.3296 15.3398 16.2815C15.3732 16.2334 15.3968 16.1792 15.4092 16.122C15.4216 16.0648 15.4226 16.0057 15.4121 15.9481C15.4017 15.8904 15.38 15.8355 15.3482 15.7863C14.4809 14.4533 13.185 13.4558 11.6744 12.9585C12.4074 12.5655 13.0202 11.9811 13.4475 11.2675C13.8749 10.554 14.1008 9.73792 14.1014 8.90619C14.1038 7.98476 13.827 7.08422 13.3072 6.32337L16.7658 5.17298C16.8549 5.1437 16.9325 5.08703 16.9875 5.01107C17.0425 4.93511 17.0721 4.84372 17.0721 4.74994C17.0721 4.65615 17.0425 4.56477 16.9875 4.4888C16.9325 4.41284 16.8549 4.35617 16.7658 4.32689ZM13.2107 8.90619C13.2105 9.49724 13.0692 10.0797 12.7984 10.6051C12.5276 11.1304 12.1353 11.5835 11.654 11.9266C11.1727 12.2698 10.6165 12.4929 10.0315 12.5776C9.44656 12.6623 8.84984 12.6061 8.29103 12.4135C7.73221 12.221 7.22746 11.8978 6.8188 11.4708C6.41014 11.0438 6.10938 10.5253 5.94157 9.95861C5.77376 9.39188 5.74374 8.79327 5.85402 8.2126C5.96429 7.63193 6.21168 7.086 6.57557 6.62025L9.35877 7.54798C9.45047 7.5775 9.54911 7.5775 9.6408 7.54798L12.424 6.62025C12.932 7.27415 13.2087 8.07813 13.2107 8.90619ZM12.4166 5.68509L9.49979 6.65736L6.58299 5.68509L3.78495 4.74994L9.49979 2.84251L15.2146 4.74994L12.4166 5.68509Z" fill="#E8AE00"/>
</svg>
