<svg width="24" height="25" viewBox="0 0 24 25" fill="none" xmlns="http://www.w3.org/2000/svg">
<path d="M1.49995 21.5614C1.49995 20.9652 1.9474 20.7785 2.12627 20.6956L8.71315 17.5872C9.18527 17.3705 9.51115 16.9235 9.57452 16.4079C9.63827 15.8922 9.43015 15.3804 9.02477 15.0552C7.46665 13.8042 6.74065 11.0547 6.74065 9.58996V5.84221C6.74065 4.27508 9.46877 2.09558 11.9936 2.09558C14.5406 2.09558 17.2418 4.24096 17.2418 5.84221V9.59033C17.2418 11.033 16.6418 13.793 15.0326 15.0597C14.8308 15.2185 14.6732 15.4265 14.5748 15.6638C14.4765 15.901 14.4407 16.1595 14.4709 16.4146C14.5324 16.934 14.8598 17.3828 15.3345 17.6011L17.5826 18.6676L17.9531 17.1706L15.9608 16.2383C18.0387 14.6029 18.7418 11.3907 18.7418 9.59031V5.84216C18.7418 3.35966 15.3053 0.595581 11.9936 0.595581C8.68165 0.595581 5.2406 3.35971 5.2406 5.84216V9.59029C5.2406 11.2279 5.98798 14.5414 8.08575 16.2252L1.49888 19.3336C1.49888 19.3336 0 20.0014 0 20.8328V23.0835C0 23.9119 0.67125 24.5828 1.49883 24.5828H17.997V23.0828L1.49998 23.0835V21.5614H1.49995ZM23.247 20.0892H20.997V17.8392C20.997 17.4249 20.661 17.0892 20.247 17.0892C19.833 17.0892 19.497 17.4249 19.497 17.8392V20.0892H17.247C16.833 20.0892 16.497 20.4249 16.497 20.8392C16.497 21.2532 16.833 21.5892 17.247 21.5892H19.497V23.8392C19.497 24.2532 19.833 24.5892 20.247 24.5892C20.661 24.5892 20.997 24.2532 20.997 23.8392V21.5892H23.247C23.661 21.5892 23.997 21.2532 23.997 20.8392C23.997 20.4249 23.6614 20.0892 23.247 20.0892Z" fill="#3BAAE1"/>
</svg>
