<svg width="27" height="22" viewBox="0 0 27 22" fill="none" xmlns="http://www.w3.org/2000/svg">
<path d="M12.0727 5.94163V2.07323C12.0727 1.73685 11.9391 1.41424 11.7012 1.17639C11.4634 0.938528 11.1408 0.804901 10.8044 0.804901C10.4716 0.806302 10.1528 0.9384 9.91655 1.17272L1.03826 10.051C0.919377 10.1689 0.82502 10.3092 0.760629 10.4638C0.696238 10.6183 0.663086 10.7841 0.663086 10.9515C0.663086 11.119 0.696238 11.2847 0.760629 11.4393C0.82502 11.5939 0.919377 11.7341 1.03826 11.852L9.91655 20.7303C10.0946 20.9049 10.3201 21.023 10.565 21.0701C10.8098 21.1172 11.0631 21.091 11.2932 20.9949C11.5233 20.8988 11.7199 20.7371 11.8585 20.5299C11.9972 20.3226 12.0717 20.0791 12.0727 19.8298V15.898H13.1508C15.1546 15.8681 17.141 16.2747 18.972 17.0894C20.803 17.9042 22.4347 19.1076 23.754 20.6162C23.913 20.8278 24.1342 20.9845 24.3867 21.0641C24.6392 21.1437 24.9102 21.1423 25.1619 21.0601C25.4179 20.9737 25.6397 20.8077 25.7949 20.5864C25.95 20.3651 26.0304 20.1 26.0243 19.8298C26.0243 8.26267 15.7762 6.28408 12.0727 5.94163ZM13.1508 13.336C12.3025 13.3333 11.455 13.3884 10.6141 13.5009C10.3139 13.5464 10.0399 13.6982 9.84208 13.9286C9.64424 14.159 9.53566 14.4528 9.53605 14.7565V16.7732L3.72711 10.9515L9.53605 5.1299V7.14654C9.53605 7.48292 9.66968 7.80553 9.90754 8.04339C10.1454 8.28124 10.468 8.41487 10.8044 8.41487C11.9586 8.41487 21.0905 8.66854 23.0691 16.5702C20.1972 14.4528 16.7188 13.3186 13.1508 13.336Z" fill="#3BAAE1"/>
</svg>
