<svg width="12" height="12" viewBox="0 0 12 12" fill="none" xmlns="http://www.w3.org/2000/svg">
<path d="M1.85917 0.375C1.85917 0.275544 1.89868 0.180161 1.96901 0.109835C2.03933 0.0395088 2.13472 0 2.23417 0L9.73417 0C9.83363 0 9.92901 0.0395088 9.99934 0.109835C10.0697 0.180161 10.1092 0.275544 10.1092 0.375C10.1092 0.7785 10.1002 1.1625 10.0837 1.527C10.38 1.57607 10.6635 1.68399 10.9175 1.84439C11.1715 2.00478 11.3908 2.21441 11.5625 2.46091C11.7341 2.7074 11.8547 2.98578 11.9171 3.27962C11.9794 3.57346 11.9823 3.87681 11.9256 4.17179C11.8688 4.46677 11.7536 4.7474 11.5867 4.99713C11.4198 5.24686 11.2045 5.46064 10.9536 5.62586C10.7028 5.79108 10.4214 5.90439 10.126 5.95912C9.83065 6.01384 9.52733 6.00887 9.23392 5.9445C8.64142 7.34325 7.82542 8.02725 7.10917 8.20275V9.8325L8.17792 10.0995C8.32342 10.1355 8.46067 10.2007 8.58067 10.2907L9.95917 11.325C10.0221 11.3722 10.0686 11.4381 10.0921 11.5132C10.1156 11.5883 10.1148 11.6689 10.0899 11.7436C10.065 11.8183 10.0173 11.8832 9.95344 11.9292C9.88959 11.9752 9.81288 12 9.73417 12H2.23417C2.15547 12 2.07875 11.9752 2.0149 11.9292C1.95106 11.8832 1.9033 11.8183 1.87841 11.7436C1.85353 11.6689 1.85276 11.5883 1.87623 11.5132C1.8997 11.4381 1.94621 11.3722 2.00917 11.325L3.38767 10.2907C3.50767 10.2007 3.64492 10.1355 3.79042 10.0995L4.85917 9.8325V8.20275C4.14292 8.02725 3.32692 7.34325 2.73442 5.94375C2.44086 6.00847 2.13731 6.01371 1.84169 5.95916C1.54607 5.90461 1.26438 5.79137 1.01326 5.62613C0.762131 5.4609 0.546662 5.24702 0.379576 4.99712C0.21249 4.74722 0.0971733 4.46638 0.0404373 4.17117C-0.0162986 3.87597 -0.0133037 3.57238 0.0492452 3.27835C0.111794 2.98432 0.232629 2.70581 0.404613 2.45925C0.576596 2.2127 0.796242 2.00311 1.05058 1.84286C1.30491 1.68262 1.58878 1.57496 1.88542 1.52625C1.86776 1.14275 1.85901 0.758901 1.85917 0.375ZM1.93342 2.28C1.54206 2.35161 1.19518 2.57575 0.969078 2.90312C0.742979 3.23049 0.656188 3.63426 0.727796 4.02562C0.799405 4.41699 1.02355 4.76387 1.35092 4.98997C1.67828 5.21607 2.08206 5.30286 2.47342 5.23125C2.22367 4.44375 2.03242 3.47175 1.93342 2.28ZM9.49567 5.23125C9.88703 5.30286 10.2908 5.21607 10.6182 4.98997C10.9455 4.76387 11.1697 4.41699 11.2413 4.02562C11.3129 3.63426 11.2261 3.23049 11 2.90312C10.7739 2.57575 10.427 2.35161 10.0357 2.28C9.93592 3.4725 9.74467 4.44375 9.49567 5.23125ZM2.61217 0.75C2.61742 1.13775 2.63167 1.5045 2.65417 1.85175C2.75167 3.37275 2.99692 4.51125 3.30667 5.352C3.95467 7.11 4.84717 7.5 5.23417 7.5C5.33363 7.5 5.42901 7.53951 5.49934 7.60983C5.56966 7.68016 5.60917 7.77554 5.60917 7.875V9.8325C5.60917 9.9997 5.55329 10.1621 5.45043 10.2939C5.34756 10.4257 5.20361 10.5194 5.04142 10.56L3.97192 10.827C3.92337 10.8391 3.87772 10.8608 3.83767 10.8907L3.35917 11.25H8.60917L8.13067 10.8907C8.09039 10.8607 8.04448 10.839 7.99567 10.827L6.92692 10.56C6.76474 10.5194 6.62078 10.4257 6.51791 10.2939C6.41505 10.1621 6.35918 9.9997 6.35917 9.8325V7.875C6.35917 7.77554 6.39868 7.68016 6.46901 7.60983C6.53933 7.53951 6.63471 7.5 6.73417 7.5C7.12117 7.5 8.01367 7.11 8.66167 5.352C8.97142 4.512 9.21667 3.372 9.31417 1.85175C9.33667 1.5045 9.35092 1.13775 9.35617 0.75H2.61217Z" fill="#F3B909"/>
</svg>
