<svg width="55" height="55" viewBox="0 0 55 55" fill="none" xmlns="http://www.w3.org/2000/svg">
<path opacity="0.1" fill-rule="evenodd" clip-rule="evenodd" d="M27.9712 53.7944C42.2812 53.7944 53.8818 42.1938 53.8818 27.8838C53.8818 13.5737 42.2812 1.97314 27.9712 1.97314C13.6611 1.97314 2.06055 13.5737 2.06055 27.8838C2.06055 42.1938 13.6611 53.7944 27.9712 53.7944Z" stroke="#0A142F" stroke-width="2.22091"/>
<path d="M36.4405 23.0934C36.3202 22.9575 36.1264 22.9234 35.9674 23.0072C35.8685 23.0593 35.6826 23.1276 35.4618 23.1952C35.7403 22.8143 35.9642 22.3879 36.0631 22.0046C36.1058 21.8394 36.0433 21.6653 35.9073 21.5668C35.7712 21.4692 35.59 21.4692 35.4539 21.5668C35.2395 21.7206 34.2047 22.1828 33.5504 22.3326C32.0718 21.0005 30.351 20.8621 28.5622 21.9363C27.1081 22.8094 26.7916 24.5851 26.8533 25.6673C23.525 25.3378 21.4561 23.5296 20.2916 22.0331C20.2101 21.9281 20.0787 21.8728 19.9553 21.8809C19.8256 21.8907 19.7085 21.9648 19.642 22.0795C19.0914 23.0357 18.9387 24.0927 19.2021 25.1368C19.3461 25.7064 19.5977 26.2085 19.8897 26.6154C19.7496 26.5446 19.6143 26.4559 19.487 26.3501C19.3699 26.2508 19.2061 26.2321 19.0676 26.298C18.93 26.3655 18.8422 26.5088 18.8422 26.6658C18.8422 28.4585 19.9324 29.6547 20.9506 30.2797C20.786 30.2594 20.6143 30.2219 20.4411 30.1674C20.2923 30.121 20.131 30.1674 20.0281 30.2878C19.9253 30.4075 19.9007 30.5783 19.9648 30.724C20.5368 32.0252 21.6207 32.9203 22.9617 33.245C21.7908 33.9522 20.2235 34.2988 18.7884 34.1288C18.6025 34.1019 18.4252 34.2231 18.3667 34.4071C18.3081 34.591 18.3849 34.7928 18.5487 34.8872C20.7259 36.1444 22.6943 36.5936 24.3952 36.5936C26.8707 36.5936 28.7814 35.6431 29.9444 34.8481C33.0797 32.7079 35.0338 28.8654 34.7617 25.4273C35.264 25.0456 36.0156 24.3409 36.4816 23.5833C36.5781 23.4303 36.5607 23.2285 36.4405 23.0934Z" fill="#0A142F"/>
</svg>
