<svg width="9" height="6" viewBox="0 0 9 6" fill="none" xmlns="http://www.w3.org/2000/svg">
<path d="M8.74448 0.958092C8.61929 0.83126 8.44951 0.76001 8.27249 0.76001C8.09547 0.76001 7.92569 0.83126 7.8005 0.958092L4.49591 4.30698L1.19132 0.958092C1.06541 0.834855 0.896775 0.766663 0.721734 0.768204C0.546693 0.769746 0.379252 0.840897 0.255475 0.966334C0.131698 1.09177 0.0614882 1.26146 0.059967 1.43884C0.0584459 1.61623 0.125735 1.78713 0.247343 1.91472L4.02392 5.74193C4.14911 5.86876 4.31889 5.94001 4.49591 5.94001C4.67293 5.94001 4.84271 5.86876 4.9679 5.74193L8.74448 1.91472C8.86963 1.78785 8.93994 1.6158 8.93994 1.43641C8.93994 1.25701 8.86963 1.08496 8.74448 0.958092Z" fill="black"/>
</svg>
