<svg width="15" height="20" viewBox="0 0 15 20" fill="none" xmlns="http://www.w3.org/2000/svg">
<path d="M11.0366 0.657801C10.9973 0.613944 9.58351 0.675113 8.3532 2.01045C7.12289 3.34463 7.31217 4.87501 7.33987 4.91425C7.36757 4.95349 9.09415 5.01466 10.1964 3.46235C11.2986 1.91004 11.0758 0.702812 11.0366 0.657801ZM14.8614 14.1993C14.806 14.0885 12.178 12.7751 12.4227 10.2498C12.6674 7.72342 14.3559 7.03094 14.3824 6.95592C14.4089 6.8809 13.6934 6.04415 12.9351 5.62059C12.3784 5.32196 11.7622 5.15086 11.1312 5.11969C11.0066 5.11623 10.5738 5.01005 9.68392 5.25357C9.09762 5.41399 7.77613 5.93336 7.41258 5.95413C7.04787 5.97491 5.96298 5.35167 4.79615 5.18663C4.04942 5.04236 3.25769 5.33782 2.69101 5.56519C2.12548 5.7914 1.04983 6.43541 0.297328 8.14699C-0.455168 9.85742 -0.061608 12.5673 0.220001 13.4098C0.50161 14.2512 0.941336 15.6304 1.68922 16.6368C2.354 17.7725 3.23576 18.5608 3.60393 18.8285C3.9721 19.0963 5.01082 19.274 5.731 18.9058C6.31038 18.5504 7.35602 18.3461 7.7692 18.3611C8.18123 18.3761 8.99374 18.5388 9.82588 18.9832C10.4849 19.2105 11.1081 19.1159 11.7325 18.862C12.3569 18.6069 13.2606 17.6398 14.3155 15.6789C14.716 14.7671 14.8983 14.2743 14.8614 14.1993Z" fill="black"/>
</svg>
