<svg width="20" height="19" viewBox="0 0 20 19" fill="none" xmlns="http://www.w3.org/2000/svg">
<path d="M18.8273 7.76389H18.0836V7.72558H9.77394V11.4187H14.9919C14.2307 13.5686 12.1851 15.1119 9.77394 15.1119C6.71461 15.1119 4.23419 12.6315 4.23419 9.57216C4.23419 6.51283 6.71461 4.03241 9.77394 4.03241C11.1861 4.03241 12.4709 4.56515 13.4491 5.43535L16.0606 2.82381C14.4116 1.28699 12.2059 0.339233 9.77394 0.339233C4.67506 0.339233 0.541016 4.47328 0.541016 9.57216C0.541016 14.671 4.67506 18.8051 9.77394 18.8051C14.8728 18.8051 19.0069 14.671 19.0069 9.57216C19.0069 8.95309 18.9432 8.3488 18.8273 7.76389Z" fill="#FFC107"/>
<path d="M1.60449 5.27469L4.63797 7.49937C5.45878 5.4672 7.44663 4.0324 9.77287 4.0324C11.185 4.0324 12.4698 4.56514 13.448 5.43535L16.0596 2.82381C14.4106 1.28699 12.2048 0.339233 9.77287 0.339233C6.2265 0.339233 3.15101 2.34139 1.60449 5.27469Z" fill="#FF3D00"/>
<path d="M9.77332 18.8053C12.1582 18.8053 14.3252 17.8926 15.9635 16.4084L13.106 13.9903C12.1478 14.7189 10.977 15.113 9.77332 15.1121C7.37184 15.1121 5.33275 13.5808 4.56457 11.4438L1.55371 13.7636C3.08176 16.7537 6.18495 18.8053 9.77332 18.8053Z" fill="#4CAF50"/>
<path d="M18.8268 7.7639H18.0831V7.72559H9.77344V11.4188H14.9914C14.6273 12.442 13.9714 13.3361 13.1047 13.9906L13.1061 13.9897L15.9637 16.4078C15.7615 16.5915 19.0064 14.1886 19.0064 9.57217C19.0064 8.9531 18.9427 8.34881 18.8268 7.7639Z" fill="#1976D2"/>
</svg>
