<svg width="19" height="17" viewBox="0 0 19 17" fill="none" xmlns="http://www.w3.org/2000/svg">
<path d="M7.42354 10.6831C6.91015 10.1706 6.59766 9.47419 6.59766 8.69295C6.59766 7.1278 7.85835 5.86621 9.42261 5.86621C10.1967 5.86621 10.9092 6.1796 11.4137 6.69209" stroke="#ADA4A5" stroke-width="1.42855" stroke-linecap="round" stroke-linejoin="round"/>
<path d="M12.1958 9.19385C11.9887 10.3456 11.0815 11.2545 9.93066 11.4635" stroke="#ADA4A5" stroke-width="1.42855" stroke-linecap="round" stroke-linejoin="round"/>
<path d="M4.65062 13.4556C3.23367 12.3432 2.03369 10.7182 1.16406 8.69231C2.04262 6.65752 3.25064 5.02362 4.67651 3.90221C6.09345 2.78079 7.72825 2.17188 9.42287 2.17188C11.1273 2.17188 12.7612 2.78972 14.1871 3.91917" stroke="#ADA4A5" stroke-width="1.42855" stroke-linecap="round" stroke-linejoin="round"/>
<path d="M16.0727 5.88306C16.687 6.69912 17.2271 7.64107 17.6816 8.69194C15.9254 12.7606 12.8218 15.2115 9.42279 15.2115C8.65227 15.2115 7.89246 15.0865 7.16211 14.8427" stroke="#ADA4A5" stroke-width="1.42855" stroke-linecap="round" stroke-linejoin="round"/>
<path d="M16.4646 1.6499L2.38086 15.7336" stroke="#ADA4A5" stroke-width="1.42855" stroke-linecap="round" stroke-linejoin="round"/>
</svg>
